<?xml version="1.0" standalone="no"?>
<!DOCTYPE svg PUBLIC "-//W3C//DTD SVG 20010904//EN"
 "http://www.w3.org/TR/2001/REC-SVG-20010904/DTD/svg10.dtd">
<svg version="1.0" xmlns="http://www.w3.org/2000/svg"
 width="1280.000000pt" height="1054.000000pt" viewBox="0 0 1280.000000 1054.000000"
 preserveAspectRatio="xMidYMid meet">
<g transform="translate(0.000000,1054.000000) scale(0.100000,-0.100000)"
fill="#000000" stroke="none">
<path d="M8782 10508 c-6 -8 -15 -32 -20 -54 -11 -53 -33 -54 -127 -5 -88 47
-129 51 -280 26 -49 -8 -111 -15 -137 -15 -69 0 -73 -11 -73 -210 0 -153 -2
-169 -23 -212 -27 -55 -23 -79 18 -108 38 -27 79 -25 196 10 136 41 151 40
216 -16 29 -26 67 -52 85 -60 17 -7 33 -19 35 -26 8 -23 -22 -143 -39 -155 -9
-7 -31 -13 -49 -13 -18 0 -35 -4 -39 -9 -7 -12 33 -41 56 -41 29 0 29 -25 3
-178 -14 -81 -47 -279 -75 -441 -27 -162 -52 -298 -55 -302 -3 -5 -40 -9 -82
-9 -101 0 -106 -4 -99 -73 7 -69 43 -141 96 -190 27 -25 40 -45 37 -55 -3 -9
-8 -39 -12 -67 -9 -65 -19 -78 -58 -69 -17 3 -191 42 -386 86 -195 44 -368 80
-385 80 -77 0 -599 -264 -840 -425 -302 -202 -514 -399 -642 -600 -54 -83
-113 -227 -113 -274 l0 -25 33 22 c59 39 211 108 277 125 164 42 308 36 475
-19 342 -115 1254 -483 1326 -536 15 -10 42 -23 60 -28 l34 -9 -3 -99 c-1 -54
-6 -112 -10 -128 l-8 -30 -155 0 c-84 -1 -160 -5 -166 -9 -19 -12 -17 -166 3
-240 30 -115 73 -182 157 -239 31 -21 57 -45 57 -54 0 -11 -92 -157 -115 -182
-1 -2 -207 53 -456 122 -574 158 -892 242 -1189 316 -266 66 -548 130 -573
130 -28 0 -20 -21 24 -62 110 -104 652 -319 1359 -538 489 -151 580 -181 580
-189 0 -4 19 -8 43 -7 48 1 107 -20 107 -39 0 -9 11 -12 39 -8 34 5 43 2 65
-22 46 -49 51 -88 37 -274 -15 -202 -56 -578 -141 -1306 -34 -288 -121 -968
-129 -1005 l-7 -34 -133 -18 c-197 -25 -218 -36 -260 -128 -16 -35 -21 -66
-21 -138 0 -87 -1 -93 -22 -101 -13 -4 -106 -11 -208 -15 -102 -3 -279 -11
-395 -16 -115 -5 -426 -19 -690 -30 -264 -11 -572 -25 -685 -30 -319 -15 -389
-14 -397 8 -3 9 -19 46 -35 82 -23 53 -38 71 -77 97 -37 24 -50 39 -55 65 -8
45 -37 324 -34 335 1 4 -2 22 -6 39 -9 40 -22 44 -167 44 -97 0 -118 3 -123
16 -3 9 -6 73 -6 144 0 227 39 378 164 635 92 189 193 339 288 431 84 81 139
115 223 140 55 15 58 18 35 26 -54 20 -926 218 -1470 334 -41 9 -79 20 -84 24
-4 5 -9 53 -10 107 -1 72 -6 107 -19 132 -23 45 -22 47 16 92 19 21 46 61 60
87 31 58 62 171 50 183 -10 10 -166 29 -240 29 l-51 0 -11 50 c-14 66 -7 84
31 76 45 -9 351 -134 533 -217 88 -40 297 -142 464 -226 168 -84 307 -151 309
-148 3 2 -33 69 -79 147 -220 379 -257 444 -340 598 -49 91 -115 225 -148 297
-141 309 -154 452 -53 550 24 24 43 45 41 47 -2 2 -193 9 -424 16 -231 6 -430
13 -442 16 -29 6 -39 42 -53 199 -6 72 -15 157 -20 190 -5 33 -16 142 -24 242
-16 190 -40 370 -57 437 l-11 39 -21 -25 c-12 -15 -32 -31 -44 -37 -31 -16
-101 -14 -161 4 -46 14 -62 27 -130 105 -63 73 -88 94 -137 116 -73 33 -145
43 -163 21 -10 -11 -10 -58 -1 -213 14 -249 15 -256 60 -266 70 -18 88 -31
135 -100 27 -38 65 -88 85 -111 32 -36 42 -41 90 -44 30 -3 108 2 174 11 93
12 123 12 132 3 7 -7 21 -105 33 -232 12 -121 24 -246 27 -278 l6 -59 -430 8
-430 7 -5 -89 c-11 -179 -117 -402 -431 -903 -165 -265 -181 -291 -174 -291 3
0 29 21 59 46 182 156 424 270 657 309 143 24 363 16 511 -18 121 -29 291 -83
317 -102 15 -11 18 -28 18 -101 l0 -87 -74 -19 c-103 -25 -136 -46 -135 -86 3
-49 49 -138 103 -195 l49 -52 -5 -88 c-4 -58 -10 -90 -18 -94 -7 -2 -206 37
-441 87 -661 141 -1092 230 -1112 230 -15 0 -23 -23 -50 -132 -69 -285 -90
-422 -98 -628 -4 -100 -2 -189 6 -250 44 -339 6 -741 -91 -950 -35 -77 -89
-136 -114 -126 -23 9 -887 495 -1050 591 -185 109 -205 119 -217 107 -6 -6 -6
-16 0 -28 6 -11 13 -26 15 -34 5 -17 71 -57 522 -315 171 -98 329 -190 353
-204 24 -14 62 -37 85 -49 23 -13 206 -117 407 -232 201 -114 507 -287 680
-383 l315 -176 48 -78 c157 -254 440 -408 858 -468 l46 -7 62 -186 c68 -206
167 -422 257 -560 223 -343 727 -590 1549 -758 454 -93 1035 -159 1610 -184
138 -6 318 -15 400 -20 193 -13 588 -13 780 0 83 5 267 14 410 20 1175 50
2244 228 2681 448 112 56 165 95 204 150 54 74 352 865 585 1552 88 259 100
287 122 294 10 3 104 19 208 36 276 44 496 99 565 141 l34 21 -26 14 c-50 26
-128 26 -338 0 -113 -15 -243 -33 -289 -42 -47 -8 -88 -11 -92 -7 -5 5 8 60
30 125 21 63 35 121 31 127 -14 23 -86 32 -307 38 -156 4 -226 10 -233 18 -12
15 15 174 34 193 15 16 137 19 287 9 l116 -9 -18 94 c-26 130 -34 320 -20 453
34 317 138 600 323 876 106 158 181 251 332 407 190 197 146 175 -175 -90 -96
-78 -271 -225 -389 -325 -118 -101 -218 -183 -222 -183 -21 0 -19 43 5 184 15
84 27 165 27 179 0 18 11 36 33 54 90 77 153 158 171 220 6 18 1 25 -31 41
-21 11 -50 22 -65 26 -39 9 -42 35 -19 177 82 502 148 991 157 1164 3 79 16
174 31 240 13 61 27 142 30 181 l6 72 -62 -1 c-54 0 -72 6 -163 51 -178 89
-208 81 -208 -55 0 -83 -9 -111 -51 -164 l-30 -38 23 -15 c13 -8 49 -22 81
-31 31 -9 72 -29 89 -43 31 -26 36 -27 135 -25 119 3 118 3 83 -89 -48 -124
-139 -526 -235 -1033 -31 -165 -58 -308 -61 -317 -4 -15 -18 -18 -67 -19 -34
-1 -75 -4 -92 -8 -30 -7 -30 -7 -27 -66 4 -96 27 -158 77 -212 25 -26 45 -50
45 -53 -1 -34 -102 -584 -112 -607 -8 -19 -126 -129 -308 -288 -431 -378 -616
-545 -903 -819 l-189 -180 -206 -7 c-114 -5 -225 -10 -247 -13 -22 -3 -47 -1
-55 4 -17 11 -23 -30 130 834 l111 629 178 186 c97 102 197 207 222 234 l44
47 84 5 c97 6 124 12 118 28 -2 7 -23 19 -48 27 -24 9 -45 22 -47 30 -1 9 119
147 268 309 423 458 606 669 598 692 -9 27 -341 -277 -763 -700 -137 -138
-256 -251 -264 -251 -20 0 -254 71 -264 80 -10 9 12 180 25 197 5 7 33 25 61
41 65 37 147 123 181 190 l26 51 -25 17 c-29 19 -135 63 -151 64 -34 0 -32 28
22 385 94 631 131 933 140 1145 4 78 16 186 30 255 50 257 91 551 79 564 -3 2
-12 -2 -20 -9 -13 -11 -23 -11 -58 0 -68 21 -138 28 -202 19 -33 -4 -87 -5
-119 -2 -55 6 -65 11 -118 59 -61 57 -76 59 -102 19 -31 -48 -97 -296 -103
-386 l-6 -87 44 -47 c55 -60 145 -105 211 -105 26 0 94 9 150 20 133 26 172
26 199 -1 27 -27 21 -76 -27 -214 -76 -217 -154 -549 -264 -1135 -39 -206 -73
-385 -75 -397 -5 -22 -10 -23 -99 -23 -123 0 -126 -1 -126 -59 0 -125 37 -226
108 -295 l46 -45 -14 -73 c-15 -72 -15 -73 -46 -72 -28 1 -304 81 -589 169
-60 19 -254 76 -430 125 -176 50 -350 100 -386 111 l-66 19 -12 74 c-7 40 -21
102 -31 137 -11 35 -20 71 -20 80 0 10 25 29 66 49 42 21 91 57 134 99 71 70
156 201 147 225 -8 20 -72 53 -172 89 -44 16 -96 35 -115 42 -19 7 -35 17 -37
21 -1 5 6 47 15 94 15 74 20 85 39 88 13 2 70 -21 130 -52 60 -30 182 -91 273
-134 205 -98 417 -214 606 -333 80 -50 148 -89 150 -86 3 3 -35 85 -84 183
-144 287 -196 451 -226 704 -36 307 -29 538 23 744 36 140 81 239 154 336 32
41 57 78 57 81 0 3 -21 11 -47 17 -89 21 -517 122 -670 158 l-153 36 0 46 c0
26 3 70 6 99 7 51 8 52 61 79 77 37 140 132 131 196 -3 22 -54 49 -119 62 -15
3 -29 12 -32 19 -3 9 58 741 75 886 3 26 17 37 61 46 37 7 34 20 -10 42 l-38
18 3 85 c2 47 10 121 17 165 26 150 60 551 49 575 -8 19 -12 20 -22 8z m-304
-5278 c298 -78 878 -219 1138 -275 114 -24 211 -48 216 -53 9 -9 -77 -544 -92
-573 -5 -9 -51 -58 -102 -110 -154 -155 -920 -954 -1271 -1326 -101 -107 -108
-109 -295 -124 -98 -7 -166 -9 -171 -3 -8 8 112 1133 174 1619 45 365 95 697
115 779 18 73 42 126 56 126 3 0 108 -27 232 -60z m1725 -386 c9 -3 17 -11 17
-17 0 -16 -191 -207 -207 -207 -16 0 -16 -1 3 117 20 119 27 127 109 118 33
-4 68 -9 78 -11z m-573 -1229 c-38 -237 -79 -497 -91 -579 -13 -84 -29 -155
-37 -162 -8 -8 -35 -14 -65 -14 -29 0 -232 -11 -452 -25 -421 -26 -525 -30
-525 -18 0 4 154 163 343 353 188 190 463 468 611 618 148 150 273 269 277
265 5 -5 -23 -202 -61 -438z m1807 -552 c-3 -43 -10 -90 -15 -104 l-11 -27
-303 -7 c-456 -11 -672 -11 -678 0 -19 36 763 210 964 214 l49 1 -6 -77z
m-9116 -13 c57 -6 151 -19 209 -30 179 -34 713 -180 747 -205 15 -11 14 -19
-13 -101 -27 -83 -29 -100 -29 -241 0 -113 -3 -154 -12 -158 -7 -2 -169 -7
-360 -10 l-348 -6 -590 329 c-324 182 -591 337 -593 345 -2 9 5 18 15 21 33 9
287 47 378 55 131 12 476 13 596 1z"/>
<path d="M7309 4933 l-24 -28 28 24 c15 14 27 26 27 28 0 8 -8 1 -31 -24z"/>
<path d="M6838 4431 c-69 -70 -175 -166 -233 -211 -90 -70 -104 -85 -90 -93
14 -8 34 7 109 80 50 50 152 138 226 198 168 135 169 136 143 129 -14 -4 -22
-1 -25 10 -2 11 -43 -24 -130 -113z"/>
</g>
</svg>
