<?xml version="1.0" encoding="UTF-8"?>
<svg class="icon" width="175px" height="179px" viewBox="0 0 175 179" version="1.1" xmlns="http://www.w3.org/2000/svg" xmlns:xlink="http://www.w3.org/1999/xlink">
    <!-- Generator: Sketch 51.3 (57544) - http://www.bohemiancoding.com/sketch -->
    <title>icone-signature-du-contrat-franchise</title>
    <desc>Created with Sketch.</desc>
    <defs>
        <rect id="path-1" x="0" y="0" width="200" height="200"></rect>
        <polygon id="path-3" points="0 0.503818184 174.918333 0.503818184 174.918333 179 0 179"></polygon>
    </defs>
    <g id="Icones" stroke="none" stroke-width="1" fill="none" fill-rule="evenodd">
        <g id="Artboard" transform="translate(-1260.000000, -550.000000)">
            <g id="icone-signature-du-contrat-franchise" transform="translate(1249.000000, 539.000000)">
                <mask id="mask-2" fill="white">
                    <use xlink:href="#path-1"></use>
                </mask>
                <g id="Rectangle"></g>
                <g id="Group-16" mask="url(#mask-2)">
                    <g transform="translate(11.000000, 11.000000)">
                        <path d="M38.083106,29 C36.9333017,29 36,29.8960674 36,31 C36,32.1011236 36.9333017,33 38.083106,33 L107.916894,33 C109.063773,33 110,32.1011236 110,31 C110,29.8960674 109.063773,29 107.916894,29 L38.083106,29 Z" id="Fill-1" fill="#50A2C3"></path>
                        <path d="M20.9909707,29 L20.0090293,29 C18.9029345,29 18,29.8960674 18,31 C18,32.1011236 18.9029345,33 20.0090293,33 L20.9909707,33 C22.0998871,33 23,32.1011236 23,31 C23,29.8960674 22.0998871,29 20.9909707,29" id="Fill-3" fill="#50A2C3"></path>
                        <path d="M106.919332,49 C108.067791,49 109,48.1039326 109,47 C109,45.8988764 108.067791,45 106.919332,45 L20.080668,45 C18.9351317,45 18,45.8988764 18,47 C18,48.1039326 18.9351317,49 20.080668,49 L106.919332,49 Z" id="Fill-5" fill="#50A2C3"></path>
                        <path d="M106.919332,65 C108.067791,65 109,64.1011236 109,63 C109,61.8960674 108.067791,61 106.919332,61 L20.080668,61 C18.9351317,61 18,61.8960674 18,63 C18,64.1011236 18.9351317,65 20.080668,65 L106.919332,65 Z" id="Fill-7" fill="#50A2C3"></path>
                        <path d="M61.8435134,82 C63.0338213,82 64,81.1039326 64,80 C64,78.8988764 63.0338213,78 61.8435134,78 L60.1564866,78 C58.9692075,78 58,78.8988764 58,80 C58,81.1039326 58.9692075,82 60.1564866,82 L61.8435134,82 Z" id="Fill-9" fill="#50A2C3"></path>
                        <path d="M45.8978447,82 C47.0581636,82 48,81.1039326 48,80 C48,78.8988764 47.0581636,78 45.8978447,78 L20.1051078,78 C18.9447889,78 18,78.8988764 18,80 C18,81.1039326 18.9447889,82 20.1051078,82 L45.8978447,82 Z" id="Fill-11" fill="#50A2C3"></path>
                        <g id="Group-15" stroke-width="1" fill="none">
                            <mask id="mask-4" fill="white">
                                <use xlink:href="#path-3"></use>
                            </mask>
                            <g id="Clip-14"></g>
                            <path d="M136.6505,38.8855096 L154.1505,49.0007089 L100.396333,142.221731 L82.8934167,132.106532 L136.6505,38.8855096 Z M145.788417,23.0410895 L163.288417,33.1592089 L156.230083,45.4002352 L138.727167,35.285036 L145.788417,23.0410895 Z M151.90175,12.4382349 C154.690083,7.61132252 160.882167,5.95271017 165.706333,8.735558 C168.0455,10.0875607 169.71675,12.2688695 170.413833,14.8794319 C171.113833,17.4870742 170.755083,20.2144403 169.404667,22.5563542 L165.368,29.5558151 L147.865083,19.4406159 L151.90175,12.4382349 Z M81.928,136.352346 L97.2055,145.182705 L80.7438333,156.062968 L81.928,136.352346 Z M123.960083,174.842081 L35.42175,174.842081 L35.42175,145.614878 C35.42175,144.470202 34.4913333,143.535773 33.3450833,143.535773 L4.15508333,143.535773 L4.15508333,4.66202943 L123.957167,4.66202943 L123.957167,52.5749017 L109.951333,76.8613082 L76.4534167,76.8613082 C75.3100833,76.8613082 74.37675,77.7957377 74.37675,78.9404139 C74.37675,80.0880101 75.3100833,81.0224396 76.4534167,81.0224396 L107.553833,81.0224396 L100.57425,93.1233015 L20.72175,93.1233015 C19.5755,93.1233015 18.6450833,94.057731 18.6450833,95.2053272 C18.6450833,96.3500033 19.5755,97.2844328 20.72175,97.2844328 L98.17675,97.2844328 L91.1971667,109.388215 L20.72175,109.388215 C19.5755,109.388215 18.6450833,110.319724 18.6450833,111.4644 C18.6450833,112.614917 19.5755,113.546426 20.72175,113.546426 L88.7996667,113.546426 L78.2559167,131.829123 C78.0984167,132.100692 78.008,132.401461 77.9875833,132.725591 L76.3513333,159.967131 C76.30175,160.758476 76.6984167,161.494339 77.3838333,161.891472 C77.63175,162.034557 77.91175,162.125079 78.218,162.15428 C78.9413333,162.16012 96.37425,162.168881 107.892167,162.171801 C109.038417,162.171801 109.968833,161.237371 109.968833,160.089775 C109.968833,158.945099 109.038417,158.01067 107.892167,158.01067 L85.3434167,158.01067 L102.30675,146.788755 C102.572167,146.61063 102.799667,146.371182 102.95425,146.102534 L123.960083,109.680224 L123.960083,174.842081 Z M31.2684167,171.901548 L7.09216667,147.696904 L31.2684167,147.696904 L31.2684167,171.901548 Z M2.0755,0.503818184 C0.932166667,0.503818184 -0.00116666667,1.43824768 -0.00116666667,2.58292381 L-0.00116666667,145.614878 C-0.00116666667,146.163856 0.223416667,146.698232 0.608416667,147.089525 L31.8750833,178.389993 C32.2659167,178.784205 32.7909167,179.000292 33.3450833,179.000292 L126.03675,179.000292 C127.180083,179.000292 128.113417,178.068783 128.113417,176.921186 L128.113417,102.473437 L173.000917,24.6354598 C174.9055,21.3328356 175.413,17.4870742 174.427167,13.8019179 C173.441333,10.1196817 171.08175,7.04190454 167.783,5.13216427 C160.972583,1.19588003 152.23425,3.54071404 148.3055,10.3591292 L128.113417,45.3710343 L128.113417,2.58292381 C128.113417,1.43824768 127.180083,0.503818184 126.03675,0.503818184 L2.0755,0.503818184 Z" id="Fill-13" fill="#FFFFFF" mask="url(#mask-4)"></path>
                        </g>
                    </g>
                </g>
            </g>
        </g>
    </g>
</svg>