<svg xmlns="http://www.w3.org/2000/svg" width="710.2" height="301.8" viewBox="0 0 187.9 79.9" fill="#606060">
<path d="M40.4.5c-2.4 1.3-4 4-4.6 7.4-.2 1.6-.2 2.8.1 5.5l.4 3.6-1.1.9c-1.4 1.1-2.2 1.4-3.8 1.4-2 0-7.2.8-9.9 1.5A41.3 41.3 0 007.8 27c-2.7 1.8-3.4 2.7-1 1.2a47.1 47.1 0 0123.6-6.8l-1.2 1.6a13.8 13.8 0 00-3.2 4.8c-.4 1.2-.6 1.4-1.4 1.5-3.8.7-9.8 3-13.5 5.3A22 22 0 00.7 47.1c-.6 2-.7 3-.7 5.6 0 1.8.1 3.5.3 3.7.1.4.2-.2 0-1.5a19 19 0 013-11.4 32 32 0 0118-11.3c4-1 3.9-1.1 3.8 1 0 1 .1 2.4.3 3 .1 1 .1 1.3-.1 1.3-.8 0-5.9 2-7.7 3-3.2 1.7-4.1 2.5-1.2 1.1 2.7-1.3 5.5-2.2 8.1-2.8 1.6-.3 1.7-.3 2 .2.6.9 2.6 2.8 3.8 3.5.6.4 2 1 2.8 1.3l1.7.5-3.5.2c-10 .5-16.5 4-20.1 10.5-2.8 5.2-2.2 12 1.5 16.3a16 16 0 006.2 3.8c1.5.5 2.5.6 4.7.6 4.3 0 7.4-1.2 10.1-3.7 1.7-1.6 1.9-2.2.2-.7a13 13 0 01-9.5 3.3C19 74.6 15 72.3 13 68c-.6-1.3-.8-2-.9-4.1-.2-5 1-8.2 4.5-11.4 3.6-3.3 7.4-4.7 13.6-5 3.5-.2 8.5.2 10.9.9 1.3.3 1.3.3 1.4 1.6 0 1.8-.7 3.7-1.9 4.6-1.8 1.3-4.4 1.6-5.9.5-.7-.5-.7-.5 0-.9 1.2-.8 1.5-1.3 1.5-2.3 0-2.4-3.3-3.2-4.6-1-1.4 2.4 1.8 6 5.4 6.1 3.5.1 6.4-2.6 6.9-6.4.1-1.3.2-1.3.9-1.1a526 526 0 0127.7 12.3v1c-.3 1.1 0 2.4.7 2.9 1 .7 3 .2 4.6-1 .6-.6.6-.6 2.3.1a108 108 0 0021.6 5.8c4.1.6 5.8.5 2.6 0-6.2-1.3-15.3-4.2-21.8-7l-3.3-1.5v-3.6l.3-4a17 17 0 014.3 1.8c.3.2.3.3 0 .6-.3.4 0 .5.7.1.3-.2 1.6.2 5 1.4 5.5 2 9.2 3.2 13.7 4.3l3.3.8v2.9l1.4.2a111 111 0 0012.7 1.4c.2 0 .4-.5.4-1 0-.6 0-1 .2-1 .1-.2 2.5 0 5.4 0 10.5.6 22.3-.6 30.6-3.2 2.5-.8 5.7-2 5.7-2.2l-3.1.8a96.4 96.4 0 01-30.5 2.5c-7-.5-7.6-.6-7.7-1.2 0-.5.1-.6 1-.8 1.5-.3 2.5-2 1.3-2.5s-2.5.7-2.7 2.5l-.1 1h-1.3l-3.2-.4c-1.7-.2-2-.3-1.9-.8 0-.4.4-.6.8-.6.7-.1 2-1.2 2-1.7 0-.4-.8-1-1.2-1-.9 0-1.7.9-2 2.2 0 .7-.3 1.3-.3 1.4-.3.2-6.3-1.2-6.5-1.5 0-.2.2-.3.5-.3 1.5 0 2.6-1.2 2-2.2-.6-1.1-2.5-.2-2.8 1.3-.2 1-.2 1-1 1a76 76 0 01-12-3.5c-6.4-2.2-8.2-3-8.4-3.5-.1-.3-1-1.6-2.2-3l-3.4-4.6-1.5-2.3V47c0 1.8 0 3.4-.2 3.4-.2.1-4.7-1.8-10-4.3-10-4.6-14-6.2-17.5-7.3l-2-.6.4-2.8c0-1.6-.4-3-.3-3 .4 0 4.8 1.2 7.9 2.3 3.2 1 3.7 1.3 3.9 2 .3.8 1.3 1.2 3.4 1.2 1.3 0 2.2.3 6.3 2a329 329 0 018.4 3.7c18.9 8.7 34.2 13 50 14.1a55.3 55.3 0 0033.8-6.3l1.1 3.8c.6 2 1 3.7 1.2 3.8.4.4 2.3-.3 3.8-1.6 2.3-2 3.2-4.1 2.4-5.8-1-1.9-4.2-1.7-5.8.3l-.8.8c-.2 0-.4-.5-.5-1l-.3-1.1 1.9-1.8c3.6-3.3 5.2-5.6 6.6-9.2 3.1-8 .9-15-5.6-18-2.2-1-5.9-1.2-8.1-.5-3.2 1-5.7 3.7-6 6.6-.2 1.5.2 3 1 3.6.3.2.3.1-.1-.7-1-2.3.2-5.7 2.7-7.4a9.2 9.2 0 015.7-1.5c4.7 0 8.7 3.2 9.9 8 1 3.7-.9 9.8-4.1 13.9a17.9 17.9 0 01-4.6 4.2l-1.1-3.9c-.8-3-1-3.6-1.5-3.6-.3 0-.5 0-.5.2l1 4 1 4.1c0 .8-6.3 3.8-10.2 4.8a45 45 0 01-15.1 1.5c-5.9 0-9 0-11.8-.4A142.1 142.1 0 0183.2 42l-11.7-5c-2.7-1.1-3-1.3-2.8-1.9v-3.5c0-1.5.1-2.8.3-2.8.4 0 9.9 3.8 21.4 8.7l5.2 2c2 .7 3.5 1.4 3.5 1.6 0 0-.2.1-.4 0-1-.4-3.4 1.2-3.7 2.5-.3 1.1 0 1.8 1 2.1 1 .4 1.8.2 2.7-.7.9-.8 1.3-1.7 1.3-2.7 0-.4 0-.8.2-.9 0 0 7.4 2.1 7.8 2.4l-1 1c-1 1-1.2 1.3-1.2 2.2 0 .5.1 1.1.3 1.3.5.5 1.8.4 2.9 0 .8-.5 2-2.2 2-3.2 0-.6.3-.6 3 0 5.7 1.4 11 2 17.2 2 5 0 8.9-.5 4.6-.6-6.3 0-16-1.6-23-3.7l-1.7-.5.1-3.5.1-4.7V33l-5.4-1.6c-3-.8-5.5-1.4-5.7-1.3 0 0-.3 1.9-.4 4 0 2.3-.3 4-.4 4-.4 0-4.5-1.7-12.6-5.3a300 300 0 00-16.7-7l-1.6-.5-.2-2.4-.2-3.6c0-.8-.1-1.3-.4-1.4-.9-.4-1 .1-.7 3.3.1 1.8.2 3.3 0 3.3l-3.2-.8A88.7 88.7 0 0041.3 19c-.1-.2.2-.6.6-1.1 2.4-2.6 3.5-5.4 3.5-9 0-3.7-.8-6.2-2.6-8.1-1-1-1.3-1.1-2.4-.4m3 3.4c.8 1.7 0 5.5-1.7 8.2-.9 1.4-3.1 3.7-3.6 3.7-.6 0-.8-1.3-.6-3.8.1-2.7.5-4.1 1.6-5.8.9-1.4 3-3.1 3.6-3l.6.7m1 18.1c4.5.6 12.4 2.5 17.7 4.2 5.9 2 5.5 1.8 5.5 3.7v1.5h-1.1c-1.3 0-3 .6-3.9 1.4-.6.5-.6.4-5.2-1l-7.7-2.1a20 20 0 01-4-1.2c-1-.7-2.1-1-4-1.4l-1.8-.3-.5-2.3c-.7-2.8-.6-3.1.7-3l4.3.5m-6.4 2.2l.3 2.5c0 .7-1.6 1.3-3.7 1.3l-3.2.2c-.9.2-1.7.2-1.8.1-.1 0 .2-.6.9-1.2 1.7-1.6 6.7-5.2 7-5l.5 2.1m-5 6.8a7.6 7.6 0 00-.4 3.9v1.3c-.2.3-4.8.7-5 .5-.5-.4-.4-4.8 0-5.4.4-.6 1-.8 4.2-.9 1.3 0 1.4 0 1.2.6m6.3.2l.7 4.4c0 .6 0 .6-2.6.5h-2.7v-.8c-.2-1.1 1-2.7 2.7-3.8 1.6-1 1.7-1 1.9-.3m4-.3c1.7.4 2.6 1 3.4 2.5.5 1 .7 3.6.4 3.9-.2.1-5-.7-5.2-.9-.1-.1-1-4.7-1-5.3 0-.5.3-.6 2.4-.2M106 34l4.5 1.3-.1 3.2c0 1.7-.2 3.2-.2 3.3-.2.2-4-1-7.7-2.4l-2.3-.9.2-1.7.2-3c0-.8 0-1 .5-1l5 1.2m81.3 4.7c-.8 4-3.6 10.5-6 14a40.6 40.6 0 01-22.8 15.6c-3.5 1-9.2 2.3-11.5 2.5l-1.7.1v-2.2l-.1-2.2H141l-5.2.3-1.1.1.2 2.4.2 2.4h-3.3c-1.8 0-3.2 0-3 .2l3 .6 3 .4.2 1.1c.3 1.5.2 1.9-.7 1.9-1.2 0-2.5 1.4-2.5 2.7 0 1.4 1.7 1.7 3 .6 1-1 1.1-1.6 1-4.1l-.2-2h4.4l4.7.3c.2 0 .3.4.3 1-.1.7-.2.8-.9 1-.9 0-2.5 1.6-2.5 2.4 0 1.7 1.7 2 3.2.8.8-.8.8-1 .8-3v-2.3l3.2-.3c14.7-1.5 26-7 32.7-16.2 4-5.6 6.5-12.4 6.3-17.6v-2.3l-.5 1.8m-153.3-.4c.6.6 2.7 1.7 2.7 1.4l-.8-1-.8-.7 2.5.1 2.7.3.5 2c.5 2.5.4 2.6-2.1 2.8-3.5.3-7.1-1-9.6-3.5-.6-.7-1-1.3-.9-1.4.2-.1 1.3-.3 2.6-.3l2.5-.2.7.5m10.3.9c1.7.4 1.8.6.6 1.8-1.4 1.2-2 1.3-2.3.2l-.3-1.6c-.2-.9 0-1 2-.4m6.3 2C54 42.3 60 45 66.2 48l8.6 4.1 3.7 1.8-.2 1.6a31 31 0 00-.1 2.8v1.3l-2 .1-1.8.2-5.1-2.6-6.8-3.4c-5.5-2.8-14-6.6-17.4-7.6-1.4-.4-1.7-.6-1.8-1.3-.3-1.3-.2-1.5.6-1.9l2.2-1.7 1.7-1.3 2.9 1m-9 3.6c0 .6-.1.7-.6.5l-4.2-.7c-.5 0 2-.4 3.4-.4 1.3 0 1.4 0 1.4.6m39.6 6.3c.6.6.8 1 .6 1-.7 0-2.3-1-2.3-1.5 0-.6.7-.4 1.7.5m88 1.7c.7.5.7 1.7.1 2.7-.6 1.1-2.1 2.2-3 2-.6 0-.8-.2-1-1.4-.4-1.7-.2-2.4.9-3.2.9-.7 2.3-.7 3-.1m-58.5 11.6c2.7.5 3.3.7 2.8 1.2a30.6 30.6 0 01-6.7-.7c-.5-.3.3-1.2.8-1l3 .5m6 1c3.9.4 4 .4 4 .9 0 .3-.3.4-2.2.2-3.3-.3-4.3-.5-4.4-1 0-.5 0-.5 2.7-.2m27.9 3.4c.2.4-.6.5-5 .7-3.4.2-4.1.1-4-.2 0-.2.9-.4 2.6-.5 4.1-.2 6.2-.2 6.4 0m0 2c.2.4-.7.6-5.7.9-3.3.1-3.4.1-3.4-.4s.2-.6.8-.6l4.1-.3c4.1-.2 4.2-.2 4.3.3" fill-rule="evenodd"/></svg>