<?xml version="1.0" standalone="no"?>
<!DOCTYPE svg PUBLIC "-//W3C//DTD SVG 20010904//EN"
 "http://www.w3.org/TR/2001/REC-SVG-20010904/DTD/svg10.dtd">
<svg version="1.0" xmlns="http://www.w3.org/2000/svg"
 width="1174.000000pt" height="1280.000000pt" viewBox="0 0 1174.000000 1280.000000"
 preserveAspectRatio="xMidYMid meet">
<g transform="translate(0.000000,1280.000000) scale(0.100000,-0.100000)"
fill="#606060" stroke="none">
<path d="M10320 12788 c-14 -7 -189 -109 -390 -227 -201 -118 -666 -389 -1035
-604 -368 -214 -1065 -621 -1547 -903 -483 -283 -1133 -663 -1445 -845 -313
-183 -680 -398 -818 -479 -137 -81 -335 -197 -440 -257 -104 -61 -381 -223
-615 -360 -234 -137 -589 -345 -790 -462 -837 -490 -1033 -608 -1024 -622 3
-5 43 -9 89 -9 87 0 107 -8 78 -31 -34 -29 -73 -93 -73 -122 0 -29 1 -30 43
-24 23 3 68 11 99 18 42 10 61 10 69 2 20 -20 0 -51 -44 -67 -23 -8 -303 -81
-622 -161 -979 -247 -1170 -297 -1178 -309 -16 -23 0 -425 22 -551 34 -194 24
-446 -25 -629 -37 -137 -123 -270 -217 -335 -23 -16 -93 -49 -156 -75 -193
-79 -246 -121 -277 -218 -32 -101 -29 -298 7 -484 7 -39 18 -58 44 -82 30 -26
35 -36 35 -76 0 -70 19 -141 43 -164 35 -33 85 -46 419 -112 706 -138 1112
-220 1120 -228 13 -13 55 -372 124 -1047 66 -656 75 -813 59 -1011 -7 -92 16
-359 33 -376 10 -10 212 -55 283 -64 49 -6 62 -3 115 24 93 47 162 103 175
140 8 24 9 150 4 440 -7 433 -10 366 55 1397 11 170 24 313 29 318 10 10 40 6
546 -84 405 -71 643 -115 940 -174 121 -24 330 -64 465 -90 616 -116 675 -129
684 -150 3 -8 12 -230 21 -493 8 -262 19 -619 25 -792 5 -173 15 -446 22 -607
10 -263 9 -294 -5 -316 -9 -14 -28 -28 -43 -31 -40 -10 -126 -70 -188 -131
-64 -64 -69 -84 -64 -285 l3 -125 -56 -6 c-56 -6 -134 -41 -143 -65 -2 -7 5
-20 16 -31 17 -15 37 -18 137 -17 98 0 128 4 195 27 l79 27 87 -21 c132 -31
147 -50 71 -88 -53 -27 -65 -44 -51 -71 17 -31 70 -50 140 -50 61 0 62 1 118
54 31 29 66 56 78 60 24 7 173 -19 222 -40 32 -13 34 -16 27 -46 -3 -18 -7
-51 -8 -72 -2 -35 2 -43 32 -63 27 -18 47 -23 95 -22 92 2 111 9 109 45 -1 16
-5 44 -9 62 -6 29 -4 32 18 32 14 0 71 -9 127 -21 86 -17 107 -19 139 -8 48
16 160 122 183 174 36 82 51 302 24 355 -15 28 -35 39 -152 75 -53 17 -103 49
-103 66 0 16 737 1923 776 2008 l24 54 78 -6 c42 -3 178 -25 302 -47 124 -23
335 -61 470 -85 135 -24 403 -73 595 -109 193 -36 469 -86 615 -111 273 -47
445 -81 459 -90 14 -8 21 -260 31 -1145 11 -932 8 -1060 -31 -1145 -22 -50
-22 -51 -11 -264 7 -118 13 -216 16 -218 2 -2 89 -24 192 -48 104 -25 197 -50
207 -55 27 -16 76 25 137 112 61 87 74 128 101 322 20 146 21 165 3 336 -6 61
3 143 105 895 113 835 199 1438 215 1509 9 37 25 84 36 106 11 22 41 95 65
162 54 145 114 261 227 434 47 71 93 144 102 162 10 19 85 103 167 188 154
158 179 195 179 261 0 56 15 99 55 157 31 46 72 149 110 278 17 59 29 179 60
623 43 617 75 1055 86 1180 24 276 24 257 -6 287 -55 55 -214 115 -564 214
-108 31 -199 60 -203 67 -7 11 -32 142 -113 582 -25 138 -71 342 -100 455 -80
302 -105 416 -390 1805 -196 955 -295 1480 -295 1567 0 35 6 41 96 113 207
163 475 340 789 520 311 178 421 260 413 303 -5 27 -55 37 -348 76 -593 77
-642 82 -680 64z m-369 -1195 c6 -15 35 -169 64 -343 68 -396 135 -771 269
-1500 155 -849 190 -1061 226 -1395 23 -209 36 -286 104 -637 25 -131 46 -256
46 -278 0 -37 -2 -40 -28 -40 -37 0 -195 50 -334 106 -62 25 -114 47 -117 50
-6 6 -3 309 5 581 l7 201 -44 28 c-142 90 -431 153 -964 213 -373 42 -748 73
-1515 126 -359 25 -713 34 -980 24 -278 -10 -420 -26 -646 -70 -194 -38 -237
-41 -242 -16 -5 22 48 45 228 99 457 136 763 259 1325 531 426 206 520 251
610 288 38 17 79 38 90 48 25 24 126 80 385 216 817 429 1344 757 1405 876 39
75 4 119 -140 174 -206 79 -255 114 -255 185 0 50 16 95 56 155 72 110 374
405 414 405 13 0 24 -10 31 -27z m-4293 -2955 c14 -14 16 -54 3 -62 -15 -10
-1057 -264 -1135 -277 -60 -10 -79 -10 -88 -1 -20 20 3 45 58 65 61 22 1102
286 1130 287 11 0 25 -5 32 -12z m-1392 -353 c8 -19 -10 -42 -47 -60 -26 -14
-520 -138 -994 -250 -416 -98 -490 -110 -502 -79 -3 8 -1 20 4 25 12 12 1457
376 1501 378 21 1 35 -4 38 -14z m1423 -4674 c7 -11 9 -63 6 -128 -3 -59 -10
-236 -15 -393 -22 -608 -64 -1435 -76 -1473 -19 -62 -24 42 -24 516 0 711 16
1465 31 1483 17 21 66 18 78 -5z m172 -27 c46 -9 90 -21 98 -27 12 -10 13 -95
8 -557 -9 -664 -25 -1449 -33 -1548 -5 -61 -9 -75 -26 -81 -43 -16 -243 24
-268 54 -13 16 -12 52 25 885 8 179 22 498 30 710 16 378 28 550 40 570 8 14
29 13 126 -6z m178 -1022 c-1 -1041 -4 -1182 -33 -1210 -16 -16 -18 -16 -33 3
-13 18 -15 73 -9 465 9 699 39 1680 51 1700 4 6 11 8 16 5 5 -4 9 -382 8 -963z
m534 893 c67 -13 203 -38 302 -55 179 -31 225 -46 225 -76 0 -8 -58 -162 -129
-342 -71 -180 -157 -401 -191 -492 -34 -91 -107 -277 -161 -415 -54 -137 -136
-346 -181 -464 -46 -118 -89 -216 -97 -219 -23 -8 -11 283 59 1508 11 190 22
395 26 455 6 105 9 125 20 125 2 0 60 -11 127 -25z"/>
</g>
</svg>
