<?xml version="1.0" standalone="no"?>
<!DOCTYPE svg PUBLIC "-//W3C//DTD SVG 20010904//EN"
 "http://www.w3.org/TR/2001/REC-SVG-20010904/DTD/svg10.dtd">
<svg version="1.0" xmlns="http://www.w3.org/2000/svg"
 width="1200.000000pt" height="1557.000000pt" viewBox="0 0 1200.000000 1557.000000"
 preserveAspectRatio="xMidYMid meet">

<g transform="translate(0.000000,1557.000000) scale(0.100000,-0.100000)"
stroke="none">
<path d="M7825 15039 c-210 -8 -624 -41 -810 -64 -82 -10 -152 -28 -273 -70
-367 -124 -596 -238 -661 -326 -22 -29 -22 -31 -5 -50 9 -10 310 -167 668
-348 786 -396 1319 -675 1596 -834 263 -150 520 -358 878 -712 328 -322 496
-523 516 -616 3 -15 23 -50 45 -79 l39 -52 -44 -55 c-90 -111 -130 -224 -122
-351 5 -92 27 -146 91 -223 55 -67 87 -127 90 -165 2 -27 2 -28 -65 -28 -37
-1 -72 -6 -77 -11 -6 -6 -33 -66 -61 -135 -147 -359 -385 -777 -630 -1105
-100 -135 -279 -352 -323 -393 l-25 -23 -21 63 c-27 81 -103 191 -167 244
l-50 40 18 25 c19 25 43 162 75 419 13 113 17 220 17 480 0 298 -2 351 -22
477 -58 368 -166 662 -335 914 -353 524 -982 819 -1749 819 -544 0 -1049 -168
-1500 -500 l-83 -61 -8 53 c-52 323 -210 549 -484 687 -234 118 -573 125 -817
17 -152 -67 -333 -219 -424 -356 -73 -108 -49 -137 85 -101 108 29 268 39 355
21 118 -23 203 -85 233 -169 8 -25 22 -126 30 -232 27 -342 57 -461 151 -590
37 -50 122 -114 167 -125 15 -3 26 -9 25 -13 -237 -450 -340 -799 -366 -1239
l-7 -123 -68 85 c-105 133 -278 259 -404 297 l-43 12 100 43 c155 67 255 147
300 239 28 57 26 91 -8 125 -74 73 -281 33 -423 -83 -95 -78 -90 -78 -67 5 58
217 30 448 -74 610 -39 61 -134 168 -150 168 -4 0 -32 -33 -62 -72 -168 -226
-213 -469 -132 -724 l23 -72 -50 25 c-46 24 -58 25 -151 21 -124 -7 -202 -34
-264 -92 -34 -32 -44 -50 -49 -84 l-6 -42 95 0 c52 0 120 -7 153 -15 60 -16
153 -65 182 -97 14 -15 10 -19 -39 -44 -118 -60 -235 -159 -283 -241 -13 -22
-29 -33 -51 -38 -62 -11 -172 -74 -215 -123 -128 -144 -143 -332 -37 -480 19
-26 37 -52 40 -58 4 -6 -13 -35 -38 -65 -54 -65 -118 -190 -141 -279 -26 -97
-24 -288 5 -404 48 -191 146 -361 285 -492 93 -88 174 -135 246 -142 l48 -4 5
63 c3 35 20 108 38 161 32 96 105 239 125 244 6 1 39 -38 75 -87 125 -173 334
-352 514 -441 36 -18 66 -35 66 -38 0 -3 -65 -36 -145 -74 -466 -221 -900
-532 -1191 -853 -455 -504 -631 -1042 -498 -1525 13 -48 35 -128 49 -177 45
-165 136 -320 267 -457 90 -93 194 -169 300 -218 40 -19 93 -44 118 -55 25
-12 81 -48 125 -81 270 -200 606 -282 883 -215 74 18 193 71 258 115 26 17 48
29 50 27 2 -2 -23 -46 -55 -98 -129 -205 -342 -435 -507 -549 -87 -60 -94 -66
-94 -95 0 -48 203 -235 381 -352 112 -73 273 -155 412 -209 l98 -38 -3 -88 -3
-89 55 -52 c30 -29 70 -63 89 -77 l34 -26 -90 -277 -90 -277 -94 -4 c-145 -6
-284 -58 -454 -172 -390 -261 -656 -717 -719 -1235 l-5 -47 57 -16 c90 -25
274 -53 429 -67 185 -15 698 -7 883 15 591 70 1059 213 1405 429 107 66 241
173 237 188 -1 5 -82 136 -178 290 l-176 280 7 46 c11 72 152 556 169 580 1 1
49 12 106 24 187 38 459 128 505 167 93 78 158 281 194 605 l17 152 47 3 c33
2 47 -1 47 -10 0 -7 15 -148 34 -312 l32 -300 52 -46 c66 -59 189 -132 290
-172 l80 -31 6 -47 c19 -146 160 -276 351 -324 81 -21 188 -36 257 -36 45 0
58 -4 62 -17 5 -18 78 -473 136 -848 17 -110 36 -213 42 -229 20 -49 84 -71
208 -71 152 1 250 35 303 107 l21 28 -22 172 c-28 227 -100 819 -107 883 l-6
50 78 27 c108 38 197 92 269 163 77 77 115 152 122 245 4 67 5 69 48 99 104
75 244 243 244 293 0 13 -29 120 -64 239 l-63 217 181 72 c303 120 528 238
556 290 15 28 11 33 -144 203 -142 156 -252 285 -315 369 l-42 56 12 154 c14
179 7 416 -15 505 -14 57 -14 68 4 150 127 581 7 1245 -322 1790 l-56 93 127
72 c980 558 1826 1262 2281 1898 138 193 295 476 342 619 40 117 -63 284 -345
563 l-139 137 28 50 c15 28 30 51 34 51 4 0 17 -23 30 -51 30 -64 61 -89 111
-89 79 0 205 85 243 165 23 49 20 81 -19 170 l-35 79 44 46 c54 55 61 70 75
143 19 104 -19 225 -92 296 -35 33 -35 34 -22 71 37 106 26 227 -28 307 -38
55 -120 105 -176 107 l-39 1 6 77 c4 70 2 82 -23 133 -31 64 -87 111 -144 121
-67 12 -66 20 9 47 39 15 84 27 99 27 44 0 119 -55 242 -179 107 -108 117
-120 132 -177 24 -86 36 -231 37 -429 l0 -171 38 -36 c47 -45 72 -58 114 -58
62 0 101 48 127 155 17 70 61 400 61 460 0 125 -51 316 -125 467 -63 128 -110
194 -199 283 -220 218 -441 230 -804 45 -53 -27 -121 -63 -149 -80 -41 -25
-53 -28 -53 -16 0 24 -95 301 -167 490 -142 370 -300 716 -382 836 -52 76 -81
91 -149 79 -30 -6 -65 -9 -80 -7 -25 3 -20 9 60 76 l86 74 -195 276 c-108 153
-196 278 -197 278 0 1 -46 -4 -101 -12 -55 -7 -101 -12 -102 -11 -1 2 -5 60
-9 130 -5 91 -10 127 -19 124 -6 -3 -96 -59 -199 -126 -103 -67 -189 -121
-190 -121 -2 0 12 55 30 123 19 67 34 129 34 138 0 21 -79 55 -169 75 -55 12
-421 37 -471 32 -8 0 -105 -5 -215 -9z m610 -125 c54 -8 103 -18 108 -23 8 -8
-84 -380 -111 -449 -7 -19 4 -13 271 160 109 70 202 128 206 128 5 0 11 -39
14 -86 2 -47 7 -88 11 -91 3 -3 61 1 128 10 68 8 123 15 124 14 0 -1 64 -93
142 -204 78 -111 142 -206 142 -210 0 -4 -29 -34 -65 -66 -36 -32 -77 -78 -91
-103 -23 -39 -25 -48 -14 -73 17 -43 56 -55 153 -48 45 3 96 9 113 13 30 6 33
3 68 -53 50 -79 132 -249 220 -455 125 -294 306 -794 306 -847 0 -11 -23 -36
-57 -62 -96 -71 -238 -196 -280 -245 l-38 -46 -58 73 c-144 182 -454 501 -692
713 -126 112 -356 296 -460 368 -178 123 -788 449 -1778 948 l-568 287 88 46
c120 62 276 125 473 190 161 54 170 56 385 76 632 60 1010 70 1260 35z m-1715
-2145 c309 -33 645 -144 880 -291 238 -149 448 -376 583 -628 190 -356 277
-834 248 -1363 -10 -194 -39 -457 -65 -597 l-12 -65 -38 3 c-21 2 -59 11 -84
21 -56 22 -55 18 -29 211 67 500 38 949 -83 1314 -111 330 -304 592 -570 769
-287 190 -609 280 -1055 294 -287 8 -511 -30 -773 -133 -610 -238 -1098 -725
-1347 -1343 -116 -291 -173 -585 -182 -943 -3 -126 -6 -228 -7 -228 0 0 -53
-9 -116 -20 -171 -29 -155 -37 -171 78 -18 127 -18 506 0 627 80 541 296 1019
642 1420 467 542 1093 855 1779 888 91 5 287 -2 400 -14z m4322 -96 c202 -94
390 -401 429 -700 11 -79 9 -107 -15 -283 -15 -107 -33 -219 -42 -248 -13 -47
-17 -51 -34 -42 -19 10 -20 22 -20 178 0 245 -20 398 -63 491 -27 57 -178 215
-279 291 -45 34 -100 66 -131 76 -52 16 -56 16 -123 -6 -172 -55 -334 -159
-334 -213 0 -17 -19 -38 -65 -75 -59 -47 -137 -134 -147 -162 -2 -8 -16 -8
-48 -1 -68 16 -131 13 -199 -8 l-60 -19 -36 46 c-19 25 -35 48 -35 52 0 15 66
98 119 150 150 147 367 298 576 401 233 115 373 135 507 72z m-286 -534 c65
-61 69 -134 13 -240 -40 -75 -157 -196 -230 -238 -77 -44 -89 -42 -89 17 -1
61 -28 120 -83 179 -65 70 -66 81 -12 141 100 111 220 175 317 169 44 -2 64
-9 84 -28z m-4198 -225 c197 -40 332 -154 394 -333 20 -56 23 -86 23 -201 0
-115 -4 -145 -23 -204 -33 -98 -67 -161 -115 -213 -46 -50 -75 -67 -130 -77
-57 -11 -77 -39 -77 -109 0 -33 5 -100 12 -148 6 -49 10 -91 7 -93 -2 -2 -36
-7 -75 -11 l-71 -7 -7 114 c-10 170 -9 168 -61 168 -51 0 -51 0 -64 -163 -5
-58 -12 -110 -16 -116 -3 -6 -39 -11 -84 -11 l-79 0 -5 33 c-3 17 -9 74 -13
125 l-7 92 -46 0 -47 0 -18 -112 c-9 -61 -20 -116 -22 -120 -7 -11 -88 0 -131
18 -38 15 -37 11 -18 129 8 50 15 112 15 139 0 46 -3 51 -51 95 -28 25 -61 64
-74 86 -37 64 -66 173 -72 275 -18 291 126 524 381 617 117 42 337 55 474 27z
m3630 -44 c57 -26 148 -114 163 -157 22 -69 -17 -150 -101 -208 -39 -27 -54
-31 -142 -36 -110 -7 -150 -25 -156 -72 -7 -56 72 -72 205 -40 70 16 72 16
135 -7 151 -54 238 -168 267 -351 6 -33 15 -67 22 -75 14 -17 51 -18 66 -3 7
7 18 3 37 -16 14 -14 42 -33 62 -41 l35 -15 -24 -42 c-13 -23 -39 -68 -57 -99
l-32 -58 -28 15 c-16 8 -73 47 -126 85 -178 129 -361 228 -515 279 l-67 22 -4
48 c-6 63 -39 128 -105 210 -55 69 -83 136 -83 202 0 48 31 146 63 201 33 57
116 134 170 158 57 26 157 26 215 0z m792 -62 c57 -39 74 -71 78 -147 6 -97
-16 -157 -76 -213 -100 -93 -238 -177 -290 -178 -37 0 -86 28 -105 59 -19 33
-23 116 -7 173 20 72 289 328 345 328 12 0 37 -10 55 -22z m-3445 -133 c57
-28 71 -98 35 -170 -38 -74 -29 -84 87 -104 81 -14 136 -45 141 -79 5 -36 -43
-106 -95 -140 -116 -74 -304 -75 -343 -2 -17 31 -64 25 -205 -25 -96 -33 -125
-40 -121 -28 6 14 17 61 30 124 5 23 21 33 118 74 62 26 133 56 158 66 l45 19
0 116 c0 114 0 116 28 140 33 28 74 31 122 9z m-2132 -17 c57 -22 72 -106 37
-208 -10 -30 -18 -55 -17 -56 1 0 39 -13 84 -29 45 -15 86 -31 91 -34 14 -9
23 -173 9 -168 -7 3 -88 35 -180 72 l-169 68 -46 -24 c-30 -14 -65 -23 -96
-23 -43 0 -52 4 -82 37 -29 31 -34 44 -34 85 0 89 53 122 157 96 85 -20 84
-20 68 27 -47 132 41 209 178 157z m5047 -138 c0 -5 7 -10 15 -10 13 0 15 -11
9 -67 -4 -38 -8 -69 -9 -71 -1 -1 -24 23 -50 53 l-47 56 23 25 c22 24 59 33
59 14z m647 -152 c53 -58 77 -169 54 -241 -15 -45 -85 -108 -166 -150 -74 -38
-172 -44 -219 -13 -28 18 -28 20 -23 81 10 105 29 138 105 183 37 22 101 67
142 101 41 33 78 60 81 61 3 0 15 -10 26 -22z m-433 -197 c2 -3 0 -15 -3 -25
-7 -17 -9 -16 -29 11 l-21 30 25 -5 c13 -2 26 -7 28 -11z m96 -1 c0 -12 -8
-12 -35 0 -18 8 -17 9 8 9 15 1 27 -3 27 -9z m305 -344 c26 -60 26 -65 11 -89
-18 -26 -78 -70 -111 -80 -17 -6 -26 5 -59 68 -36 68 -38 77 -26 100 7 14 23
25 34 26 12 0 41 8 66 19 25 10 48 18 51 19 4 1 19 -28 34 -63z m-3956 -103
c238 -96 265 -105 285 -93 89 57 164 64 212 19 50 -46 23 -106 -85 -185 -13
-10 -10 -17 22 -53 58 -64 62 -109 14 -145 -21 -15 -43 -21 -83 -21 -47 0 -57
4 -86 33 -32 31 -33 36 -32 106 l1 73 -306 123 c-168 68 -312 128 -319 133 -8
6 -12 25 -10 46 3 30 7 36 33 41 17 4 40 12 50 18 11 6 25 12 30 12 6 0 129
-48 274 -107z m-1316 -30 c-13 -99 -5 -92 -181 -167 l-162 -69 6 -82 c7 -85
-4 -143 -31 -165 -11 -9 -26 -9 -65 1 -39 10 -58 10 -81 2 -35 -14 -55 -8 -70
19 -8 14 -4 34 16 84 24 60 25 68 11 88 -10 17 -28 25 -62 30 -66 9 -94 37
-94 93 0 89 55 143 146 143 49 0 84 -14 169 -64 l30 -18 180 75 c99 42 183 77
187 77 4 0 5 -21 1 -47z m-2541 -249 c157 -47 298 -155 421 -323 95 -128 108
-160 133 -324 13 -83 27 -154 32 -158 4 -4 72 4 152 17 80 13 147 24 149 24 3
0 -18 -14 -45 -32 -75 -49 -177 -156 -217 -228 -54 -98 -67 -164 -67 -338 l0
-151 -40 -58 c-61 -86 -84 -172 -78 -293 4 -81 10 -109 32 -154 32 -66 112
-141 167 -157 21 -7 39 -15 39 -18 0 -3 -42 -19 -93 -34 -50 -16 -153 -51
-227 -78 -74 -27 -144 -49 -156 -49 -34 0 -274 125 -349 182 -86 65 -207 185
-263 259 -23 31 -42 58 -42 61 0 3 28 8 63 11 225 21 436 177 510 376 29 77
30 234 3 306 -57 150 -173 262 -349 339 l-75 33 28 16 c35 21 87 98 101 151
17 61 7 193 -18 241 -64 123 -235 208 -382 191 -52 -6 -131 -37 -176 -70 -11
-8 -28 -11 -38 -7 -16 6 -11 15 39 64 99 100 265 179 429 206 39 6 81 13 95
15 43 7 167 -4 222 -20z m6333 -85 c268 -99 921 -626 1198 -967 l27 -34 -52
-74 -51 -74 -201 198 c-416 408 -770 666 -1038 756 -40 14 -73 29 -73 34 0 5
23 50 50 100 55 101 44 96 140 61z m-6744 -204 c60 -21 127 -78 150 -129 25
-55 25 -157 0 -212 -41 -90 -130 -130 -256 -114 -38 5 -92 10 -120 10 -102 0
-154 67 -155 195 0 205 176 320 381 250z m-419 -50 c2 -3 -6 -38 -20 -77 -20
-61 -23 -86 -19 -150 3 -50 13 -94 26 -121 26 -54 20 -72 -27 -88 -39 -12
-149 -67 -194 -96 -26 -16 -27 -16 -47 8 -12 13 -34 51 -51 83 -44 86 -42 159
6 254 37 75 80 118 151 153 51 25 162 46 175 34z m3950 -295 c-7 -81 -51 -140
-137 -182 -71 -35 -77 -33 -115 40 -19 37 -56 95 -82 130 l-48 62 193 -2 192
-3 -3 -45z m1179 -40 c56 0 63 -12 18 -31 -18 -7 -67 -34 -109 -59 l-78 -47
-4 66 c-3 36 -3 70 0 75 3 5 32 6 65 2 33 -3 82 -6 108 -6z m-2581 -75 c0 -41
-2 -75 -5 -75 -2 0 -35 16 -72 35 -37 20 -106 49 -153 64 l-85 29 100 7 c55 3
105 8 110 10 6 2 31 4 58 4 l47 1 0 -75z m3152 26 c176 -18 189 -21 230 -49
143 -98 225 -262 204 -406 l-7 -45 -42 15 c-23 8 -74 17 -113 21 l-72 6 -5 42
c-15 134 -132 247 -286 275 -148 27 -335 -41 -386 -141 -20 -37 -19 -109 1
-137 8 -12 33 -31 55 -43 37 -18 59 -50 59 -84 0 -8 -49 12 -132 54 -73 37
-156 77 -184 88 l-52 21 -7 81 c-5 58 -4 86 5 96 14 17 148 104 210 135 91 47
224 89 280 89 30 0 139 -8 242 -18z m-3422 -90 c52 -17 131 -51 175 -75 l80
-44 3 -85 3 -85 -81 -43 c-44 -24 -112 -67 -151 -96 -39 -29 -72 -53 -75 -53
-2 0 -4 13 -4 28 0 22 12 39 51 72 60 51 74 80 59 126 -27 82 -148 138 -295
137 -216 -2 -356 -147 -356 -369 0 -77 -5 -83 -64 -84 -11 0 -46 -11 -78 -24
l-59 -24 4 132 c3 130 4 134 40 208 68 137 231 264 390 304 89 23 245 12 358
-25z m865 -21 c135 -54 336 -163 323 -176 -2 -2 -46 4 -98 12 -52 8 -177 18
-277 21 -101 3 -183 8 -183 10 0 15 34 64 67 94 33 31 82 69 90 69 1 0 36 -13
78 -30z m-2710 -30 c194 -52 349 -159 411 -286 26 -53 29 -69 29 -159 0 -89
-3 -106 -28 -157 -78 -159 -246 -264 -452 -283 l-80 -7 30 32 c54 58 158 131
252 176 98 47 116 65 102 102 -13 35 -47 33 -138 -9 -270 -124 -483 -385 -557
-681 l-16 -68 -41 23 c-97 54 -228 211 -293 351 -75 163 -103 363 -71 513 43
198 183 364 370 435 139 53 325 60 482 18z m3388 -125 c36 -73 36 -75 14 -75
-12 0 -31 -3 -42 -5 -17 -5 -24 4 -43 52 -37 93 -37 91 -5 96 15 2 30 5 33 6
3 0 22 -33 43 -74z m1842 6 c113 -53 170 -191 108 -265 -37 -44 -53 -88 -53
-143 0 -60 29 -110 67 -119 52 -11 58 -15 108 -59 l50 -44 -26 -26 c-26 -26
-143 -75 -179 -75 -13 0 -28 20 -52 73 -36 79 -95 158 -170 227 -44 41 -50 52
-69 130 -29 118 -43 144 -95 171 -51 28 -57 53 -20 88 63 59 244 82 331 42z
m-1718 -66 c-4 -9 -19 -15 -39 -15 l-33 1 35 19 c38 20 46 19 37 -5z m-1774
-1 c73 -25 79 -39 29 -81 -69 -57 -89 -114 -67 -195 l13 -50 -48 -53 c-70 -77
-147 -196 -192 -294 -60 -133 -61 -135 -93 -142 -49 -11 -130 -10 -164 2 -39
14 -48 44 -27 93 18 44 67 69 171 87 81 13 89 19 117 73 37 73 23 116 -65 197
-47 44 -50 51 -55 103 -9 113 41 210 131 252 63 29 177 33 250 8z m1490 2 c4
-10 1 -13 -9 -9 -15 6 -19 23 -5 23 5 0 11 -7 14 -14z m-618 -58 c31 -93 184
-102 217 -12 11 32 14 33 52 28 105 -14 217 -36 280 -55 l68 -20 -6 -42 c-4
-23 -8 -43 -10 -45 -2 -2 -55 4 -117 14 -125 18 -446 24 -566 11 l-71 -8 -12
56 c-6 31 -9 67 -6 80 6 22 12 24 79 27 39 2 74 2 77 0 2 -2 9 -17 15 -34z
m1003 -98 c133 -71 212 -227 241 -481 23 -192 -25 -311 -153 -376 -103 -52
-181 -40 -340 53 -85 50 -213 168 -241 224 -27 53 -25 113 5 145 87 94 221 82
295 -25 45 -65 105 -64 105 2 0 43 -107 149 -174 171 -56 19 -112 22 -151 7
-19 -7 -8 7 38 53 66 63 107 142 107 203 0 14 5 35 11 46 10 19 18 20 102 16
81 -3 100 -8 155 -38z m2037 -107 c110 -57 155 -175 125 -325 -38 -193 -134
-281 -343 -310 -90 -13 -91 -12 -102 60 -4 24 -9 50 -12 58 -3 8 10 16 39 24
183 47 271 140 252 266 -12 83 -68 124 -169 124 -40 0 -57 4 -61 15 -9 22 27
88 56 103 38 20 165 10 215 -15z m-2567 -24 c42 -5 83 -12 91 -15 21 -7 -53
-62 -134 -99 -190 -89 -385 -67 -501 57 -25 27 -43 52 -39 56 21 22 422 23
583 1z m-1730 -155 c27 -19 44 -57 36 -79 -4 -8 -18 -15 -34 -15 -43 0 -147
-35 -189 -64 -78 -54 -109 -171 -66 -244 32 -54 93 -77 203 -77 65 1 91 -3 88
-11 -2 -6 -7 -36 -11 -66 l-7 -55 -88 -6 c-213 -15 -322 49 -349 206 -38 219
124 426 334 427 40 0 68 -6 83 -16z m1798 -479 c57 -53 160 -123 225 -155 l46
-22 6 -247 c4 -135 7 -310 7 -388 l0 -143 -187 0 c-163 1 -318 11 -327 22 -7
7 147 954 156 966 16 18 22 16 74 -33z m827 -110 c61 -45 77 -62 82 -88 38
-219 93 -572 90 -578 -8 -13 -179 -77 -275 -103 -111 -30 -328 -68 -341 -60
-5 3 -9 162 -9 366 l0 360 26 -6 c71 -18 221 41 292 114 26 27 50 49 53 49 4
1 41 -24 82 -54z m-1929 -52 c-18 -49 -34 -95 -34 -103 -1 -25 -27 42 -43 113
-8 36 -12 68 -9 71 3 4 31 6 62 6 l57 0 -33 -87z m2492 -47 c37 -17 60 -37 83
-71 l31 -47 -37 -61 c-20 -34 -76 -101 -123 -148 -88 -89 -236 -197 -250 -182
-9 10 -79 443 -71 443 3 0 49 -43 102 -96 l97 -96 10 63 c6 35 17 101 23 147
l13 84 35 -7 c20 -3 59 -17 87 -29z m-3207 -50 c-5 -18 -18 -80 -28 -137 -25
-134 -34 -157 -66 -165 -50 -12 -76 33 -90 157 -15 122 29 179 137 179 l56 0
-9 -34z m1041 -85 c26 -67 54 -108 80 -116 18 -6 20 -15 19 -83 -1 -42 -4
-114 -7 -160 l-7 -82 -65 42 c-74 48 -224 189 -266 249 -24 34 -25 42 -13 54
33 33 225 162 231 156 4 -3 16 -30 28 -60z m-1326 -38 c3 -21 6 -56 6 -78 0
-22 9 -63 18 -92 18 -49 18 -53 0 -86 -21 -41 -51 -54 -83 -37 -36 19 -55 72
-54 153 1 93 17 148 49 164 43 22 57 16 64 -24z m-205 -32 c11 -7 13 -23 8
-67 -3 -31 -2 -79 3 -106 8 -39 6 -56 -6 -81 -20 -40 -64 -87 -81 -87 -22 0
-46 63 -51 136 -4 71 11 126 54 192 15 23 48 29 73 13z m-222 -93 c4 -7 8 -53
10 -103 2 -95 -15 -154 -51 -184 -47 -39 -116 43 -116 137 0 56 7 77 47 130
20 26 31 32 63 32 21 0 42 -6 47 -12z m49 -1091 c-52 -81 -124 -229 -165 -337
l-37 -98 -32 38 c-39 47 -40 76 -9 163 24 66 73 141 124 189 23 22 139 98 150
98 1 0 -13 -24 -31 -53z m4341 -152 c21 -9 46 -23 57 -33 50 -45 72 -165 42
-235 -31 -74 -115 -126 -204 -127 -67 0 -113 21 -156 71 -60 70 -72 156 -31
225 53 90 196 139 292 99z m-801 -119 c1 0 15 -29 32 -62 46 -91 81 -90 146 5
28 40 30 41 85 41 31 0 72 -3 92 -6 35 -6 37 -7 37 -51 1 -25 4 -54 7 -64 6
-17 1 -19 -37 -19 -24 0 -168 -12 -321 -26 -153 -14 -281 -23 -284 -21 -3 3
15 38 40 79 24 40 52 88 61 106 l17 34 62 -7 c34 -4 63 -8 63 -9z m-1311 -147
l45 -89 -70 0 c-38 0 -70 3 -70 7 0 9 20 132 26 161 7 34 20 19 69 -79z
m-1156 72 c79 -41 131 -131 117 -206 -10 -52 -67 -110 -128 -131 -97 -32 -249
7 -299 78 -32 44 -37 118 -11 160 61 99 223 148 321 99z m785 -92 c37 -44 67
-81 65 -83 -2 -1 -132 -10 -289 -20 -157 -9 -300 -20 -318 -23 -31 -5 -33 -4
-27 20 4 14 -1 51 -10 82 -9 32 -15 59 -13 60 5 5 406 42 468 44 l55 1 69 -81z
m1087 -11 l32 -63 -7 -370 c-3 -203 -9 -466 -13 -582 l-6 -213 -192 0 -192 0
-6 263 c-4 144 -7 314 -7 378 l0 117 94 148 c195 308 245 384 255 384 6 0 25
-28 42 -62z m1485 -470 c80 -37 133 -136 119 -221 -9 -53 -70 -118 -138 -147
-141 -62 -325 0 -373 125 -33 89 14 168 138 229 60 31 81 36 139 36 50 0 82
-6 115 -22z m-4420 -86 c72 -52 154 -179 204 -314 45 -124 54 -179 54 -328 1
-125 -2 -156 -23 -222 -13 -43 -27 -78 -32 -78 -4 0 -38 18 -77 40 -38 22 -80
40 -93 40 -43 0 -131 -61 -162 -112 -59 -96 -43 -168 52 -230 28 -18 51 -36
51 -39 0 -11 -120 -85 -190 -118 -104 -49 -192 -64 -339 -58 -84 3 -151 12
-201 26 -100 29 -297 126 -387 192 -84 60 -88 71 -81 202 13 237 253 560 603
813 102 73 303 176 385 198 30 8 87 15 126 15 63 1 75 -2 110 -27z m1322 -12
c41 -25 71 -89 72 -153 0 -73 -34 -124 -107 -161 -39 -20 -125 -21 -161 -2
-89 46 -129 172 -79 247 51 77 200 115 275 69z m2608 -26 c-3 -9 -6 -33 -6
-54 l0 -38 -117 -6 c-203 -12 -574 -35 -665 -42 l-88 -7 0 72 0 71 33 1 c17 1
104 5 192 9 88 3 272 7 409 8 223 2 248 0 242 -14z m-1486 -88 l0 -63 -202 -7
c-277 -9 -642 -25 -703 -31 l-50 -5 -1 69 0 69 91 7 c81 6 496 19 768 23 l97
2 0 -64z m-1431 -571 c204 -48 341 -188 387 -392 24 -109 15 -281 -19 -380
-102 -290 -316 -443 -584 -418 l-76 7 74 40 c220 119 358 273 389 436 50 251
-125 437 -395 419 -187 -12 -355 -124 -457 -304 -24 -43 -33 -51 -46 -44 -10
5 -91 61 -182 123 -133 91 -166 118 -168 139 -4 30 28 73 69 94 28 15 32 14
154 -55 69 -39 133 -70 142 -68 10 2 38 32 62 67 187 268 422 389 650 336z
m2298 -75 c184 -13 250 -27 270 -57 38 -57 7 -418 -65 -758 l-27 -129 -90 -29
c-240 -77 -476 -116 -737 -124 -280 -8 -447 16 -655 96 -79 31 -229 117 -253
146 -11 13 -10 73 4 348 9 183 16 346 16 364 0 29 4 33 38 42 62 17 314 49
552 71 387 36 714 46 947 30z m267 -1126 c79 -161 202 -331 360 -499 41 -43
74 -80 73 -81 -3 -3 -286 -80 -323 -88 -29 -6 -35 -3 -67 36 -69 86 -250 371
-360 568 l-36 66 122 33 c67 18 136 38 152 45 17 7 31 12 33 11 1 -1 22 -42
46 -91z m-1588 26 l90 -34 -99 -161 c-279 -448 -368 -583 -390 -589 -36 -9
-279 -37 -283 -33 -2 2 109 168 247 368 138 200 269 392 292 426 23 35 44 62
48 60 3 -1 46 -18 95 -37z m2799 -1325 c-70 -143 -264 -244 -574 -297 -182
-32 -520 -32 -633 -1 -101 29 -164 62 -215 115 -38 39 -80 114 -70 124 2 3 60
-6 128 -20 441 -88 918 -45 1284 116 114 50 121 47 80 -37z m-410 -737 l39
-348 -23 -24 c-50 -53 -187 -89 -254 -67 -66 22 -67 24 -127 399 l-56 347 115
12 c64 7 148 19 186 26 39 8 73 11 76 8 3 -3 23 -162 44 -353z m-4472 -145 c5
-27 3 -33 -11 -33 -36 0 -107 -57 -146 -116 -22 -32 -47 -71 -57 -85 -9 -14
-25 -49 -35 -77 l-19 -52 -62 0 -62 0 5 33 c28 163 58 221 179 343 50 50 110
100 135 112 l45 22 11 -58 c6 -31 14 -72 17 -89z"/>
<path d="M6457 11590 c-35 -27 -51 -81 -50 -165 1 -179 90 -293 176 -224 55
42 78 238 38 325 -36 78 -109 107 -164 64z"/>
<path d="M6204 11541 c-77 -47 -98 -105 -92 -255 5 -115 20 -166 56 -185 67
-36 172 163 172 325 0 83 -24 128 -70 132 -21 1 -47 -5 -66 -17z"/>
<path d="M2821 9963 c-11 -10 -24 -32 -27 -50 -5 -26 -1 -37 20 -58 31 -30 66
-28 101 5 22 23 26 80 6 104 -18 21 -74 20 -100 -1z"/>
<path d="M2250 9880 c-44 -44 -18 -120 41 -120 34 0 69 41 69 80 0 55 -70 80
-110 40z"/>
<path d="M2419 9287 c-19 -12 -42 -38 -51 -57 -15 -29 -16 -37 -4 -55 27 -40
87 -31 112 17 21 40 22 97 4 109 -21 12 -23 12 -61 -14z"/>
<path d="M2190 9218 c-59 -31 -22 -108 51 -108 29 0 42 6 58 26 25 32 26 36 4
63 -22 27 -80 36 -113 19z"/>
<path d="M3342 5699 c-62 -30 -152 -111 -152 -135 0 -8 13 -20 28 -28 88 -45
199 -184 223 -276 12 -47 15 -50 43 -49 17 0 67 8 111 17 l80 17 3 62 c9 184
-136 423 -256 423 -10 0 -46 -14 -80 -31z m126 -64 c53 -38 122 -177 137 -278
8 -51 8 -51 -57 -62 -34 -5 -37 -4 -48 29 -17 51 -103 169 -155 211 -25 21
-45 41 -45 46 0 13 102 69 125 69 11 0 30 -7 43 -15z"/>
<path d="M5866 4920 c-204 -15 -351 -45 -369 -77 -9 -17 20 -583 31 -596 22
-26 107 -66 187 -87 233 -61 712 -45 957 32 37 11 74 28 82 37 13 14 16 69 18
331 l3 315 -36 12 c-20 6 -79 16 -130 22 -128 15 -585 22 -743 11z m168 -293
c15 -11 16 -21 9 -72 l-8 -60 -100 -3 c-130 -4 -143 0 -151 42 -9 51 3 94 29
99 54 10 204 6 221 -6z m410 -23 c20 -52 -13 -94 -74 -94 -69 0 -94 44 -52 93
20 23 117 24 126 1z"/>
</g>
</svg>
