<?xml version="1.0" encoding="utf-8"?>
<!-- Generator: Adobe Illustrator 16.0.0, SVG Export Plug-In . SVG Version: 6.00 Build 0)  -->
<!DOCTYPE svg PUBLIC "-//W3C//DTD SVG 1.1//EN" "http://www.w3.org/Graphics/SVG/1.1/DTD/svg11.dtd">
<svg version="1.1" id="Layer_1" xmlns="http://www.w3.org/2000/svg" xmlns:xlink="http://www.w3.org/1999/xlink" x="0px" y="0px"
	 width="296.241px" height="452.073px" viewBox="0 0 296.241 452.073" enable-background="new 0 0 296.241 452.073"
	 xml:space="preserve">
<path d="M233.857,308.679c-8.543,1.313-18.558,2.231-29.765,2.729c-33.218,1.476-63.329,1.08-89.621-1.139
	c-2.342,3.119-5.563,4.941-9.215,4.941c-4.215,0-10.269-0.808-14.386-7.593c-9.065-1.315-17.347-2.905-24.684-4.74
	c-1.733,1.091-3.355,1.678-4.859,1.974c3.249,9.104,31.051,87.024,31.895,89.388c4.827,2.611,20.063,10.185,41.367,14.289
	c15.417,2.969,30.996,3.601,46.307,1.879c18.199-2.048,36.136-7.511,53.351-16.189c0.759-3.104,19.953-81.625,22.278-91.137
	c-0.361,0.14-0.68,0.294-1.051,0.43l-0.195,0.071l-21.275,5.074L233.857,308.679z M177.496,3.835V3.806
	c0-2.102-1.704-3.806-3.806-3.806h-16.936c-2.074,0-3.756,1.659-3.802,3.721c0.997,0.759,3.771,2.193,10.499,2.193
	C171.886,5.914,176.11,4.915,177.496,3.835z M177.496,23.329V5.169c-2.868,1.524-8.937,1.887-14.044,1.887
	c-5.861,0-8.946-1.074-10.504-1.976v17.976C156.367,24.557,169.751,29.775,177.496,23.329z M208.278,257.265l4.607-2.133
	c-0.512-0.941-1.159-2.074-1.488-2.646c-12.323,2.908-19.279,8.248-20.818,9.532c0.752,1.3,2.457,3.383,3.202,4.272l2.38-1.974
	l0.364,0.438c0,0,9.204-5.855,11.993-6.973L208.278,257.265z M177.496,111.344V25.836c-8.196,5.32-20.051,1.271-24.548-0.604v85.839
	C156.367,112.572,169.751,117.79,177.496,111.344z M82.187,114.602c5.639,0,8.307,1.833,10.14,4.889
	c1.834,3.056,0.862,5.806,1.167,8.112c0.305,2.306,1.361,6.029,5.028,8.002c3.668,1.972,8.251,2.75,15.974,2.417
	c7.723-0.334,16.529-4.612,21.113-7.14s10.751-8.668,12.028-10.779c1.279-2.111,3.612-6.25,4.779-8.39
	c1.167-2.139-0.361-1.777-1.111-1.027s-3.778,5.389-4.917,7.75c-1.139,2.361-1.417,1.417-1.417-1.055
	c0-2.473,2.034-84.137,2.034-84.137s5.737-8.008,5.737-9.801c0-1.792-0.956-2.629-1.912,0.12
	c-0.956,2.749-4.901,9.681-12.789,16.374c-7.888,6.693-22.11,10.158-32.747,9.202c-10.637-0.956-10.757-9.681-11.474-16.613
	s-10.875-8.007-16.732-6.932c-5.856,1.076-13.266,4.781-40.396,6.215C9.561,33.243,0,18.662,0,18.662v88.417
	c0,0,1.882,3.917,6.496,6.819c4.615,2.902,9.182,4.663,20.41,6.375c11.228,1.713,24.74-0.38,32.067-1.903
	C66.3,116.848,76.547,114.602,82.187,114.602z M98.217,83.47c0-0.886,1.767-2.245,4.668-3.722c2.901-1.476,4.903-3.603,5.317-5.494
	c0.413-1.89,3.485-5.081,4.312-5.908c0.827-0.827,2.186-0.827,2.186,0.178c0,1.004,0.768,2.599,2.541,3.663
	c1.772,1.063,2.54,2.008,2.54,3.426s-3.479,4.779-5.553,6.853c-0.473,0.473-4.136,1.595-6.204,1.891
	c-2.067,0.294-7.148,1.122-8.743,1.831C97.686,86.897,98.217,84.357,98.217,83.47z M96.226,99.298
	c3.758,2.311,6.271,2.861,8.306,3.191c2.036,0.33,4.594,0.083,5.557-0.88c0.962-0.963,4.648-3.713,5.776-4.841
	c1.976-1.976,4.125-2.75,3.905,0c-0.22,2.751-2.31,11.387-4.841,14.633c-2.53,3.245-4.566,3.63-5.776,0.715
	c-1.21-2.916-3.135-5.336-5.061-5.336c-1.925,0-3.795-1.485-5.501-2.641c-1.705-1.155-5.005-2.86-6.491-3.355
	c-1.485-0.495-2.585-1.705-1.705-2.586C91.275,97.318,92.468,96.988,96.226,99.298z M68.029,46.369
	c3.131,1.005,12.879,4.727,19.082,12.111c6.203,7.385,6.499,12.406,6.114,14.622c-0.384,2.215-1.529,1.766-2.392-0.62
	c-1.005-2.777-5.317-6.617-8.33-7.326c-3.013-0.709-5.73-0.296-8.152-2.008c-2.423-1.714-7.444-8.153-9.453-12.348
	C62.889,46.606,64.898,45.365,68.029,46.369z M54.323,68.051c0.828-1.418,2.068-4.135,0.887-6.675
	c-1.182-2.541,0.472-6.558,1.359-8.862c0.885-2.304,2.273-4.697,2.953-4.018c0,0,2.215,6.883,8.684,13.352
	c6.469,6.469,6.263,9.216,6.912,12.997c0.65,3.781,2.836,7.621,5.318,9.452c2.481,1.832,4.312,0.532,6.261-1.417
	c1.95-1.95,3.723-4.254,5.141-2.305c1.418,1.95,1.949,5.317,0.177,6.44c-1.773,1.122-3.663,1.122-4.431,1.122
	s-0.827,1.832-1.182,3.427c-0.354,1.595-1.949,6.262-4.312,7.266c-2.363,1.005-6.203,1.063-10.457-1.713
	c-4.253-2.777-9.393-8.034-9.866-12.229c-0.472-4.195,0-6.145-2.422-7.975c-2.422-1.832-4.667-3.958-5.435-4.726
	S53.496,69.469,54.323,68.051z M31.216,59.643c2.79-3.487,4.751-4.664,6.538-1.831s6.276,6.233,7.846,6.625
	c1.569,0.393,2.179,1.482,2.179,2.31c0,0.828,0.42,3.458-0.697,3.051c0,0-3.357-1.613-6.8-0.349
	c-3.443,1.264-7.191,3.836-8.891,4.62c-1.7,0.785-3.357,1.177-3.357-2.004C28.034,68.883,28.427,63.13,31.216,59.643z
	 M53.593,88.357c-1.972-1.101-6.1-0.597-8.027,0.779c-1.926,1.377-5.413,5.413-6.605,8.854c-1.193,3.44-1.881,3.898-3.486,4.449
	c-1.606,0.55-3.303,0.642-4.128-0.184c-0.826-0.825-1.193-1.467-1.009-2.706c0.329-2.223-1.422-3.256-2.157-2.523
	c-0.734,0.734-1.972,0.597-1.559-2.247c0.413-2.844,2.615-7.156,5.825-9.312c3.211-2.156,9.221-2.752,12.064-2.156
	c2.845,0.596,7.844,0.917,8.991,0.596c1.147-0.32,2.385,0.689,2.385,1.652C55.887,86.522,55.566,89.458,53.593,88.357z
	 M68.503,71.774c2.392-2.393,0.472-5.14-1.064-7.208c-1.536-2.068-2.792-2.978-5.435-2.304c-0.776,0.198-1.241,0.472-2.009,2.009
	c-0.768,1.536,0.296,4.726,1.654,6.734C63.008,73.014,66.11,74.166,68.503,71.774z M67.211,83.246c-0.728,0-0.617,0.672-1.456,1.511
	c-0.84,0.84-0.504,1.4,0.392,3.135c0.895,1.736,2.911,4.255,5.933,6.325c3.023,2.072,7.277,1.96,9.629,1.512
	c2.351-0.448,1.455-3.359,0.279-4.534c-1.175-1.176-1.343-2.295-3.47-1.735c-2.128,0.559-3.975-0.56-6.606-2.072
	C69.281,85.877,67.211,83.246,67.211,83.246z M160.055,200.544c0.806,0.19,1.405,0.312,1.85,0.386
	c-0.295-0.363-0.721-0.839-1.353-1.47c-4.488-4.488-7.503-9.456-7.503-18.345c0-1.155,0.051-2.378,0.157-3.673
	c0.91-11.209,4.929-17.82,11.117-24.852c5.088-5.781,7.806-7.678,13.173-9.399V113.85c-8.196,5.322-20.051,1.271-24.548-0.604
	v88.668C155.307,200.74,157.812,200.012,160.055,200.544z M66.145,251.932c-1.702,0-1.702,0.487-1.702,2.432
	c0,1.054,0.648,2.351,1.621,4.134c0.973,1.784,2.432,1.623,3.243,0.812c0.81-0.812,2.594-3.324,3.242-5.593
	C73.197,251.446,67.847,251.932,66.145,251.932z M206.195,243.983c-0.296-0.481-0.589-0.956-0.878-1.417
	c-14.941,0.075-20.771,5.384-22.02,6.747c0.674,0.879,1.897,2.524,2.693,3.854C188.537,251.546,199.69,244.662,206.195,243.983z
	 M210.647,251.492c-0.682-1.181-2.195-3.785-3.785-6.414c-6.061,0.248-17.9,7.559-20.316,9.09c0.924,1.752,2.748,5.34,3.493,6.81
	C191.96,259.393,198.728,254.393,210.647,251.492z M240.39,303.875c0.362-0.072,0.722-0.146,1.076-0.221
	c-0.15-0.167-0.302-0.347-0.453-0.546C241.013,303.108,240.78,303.426,240.39,303.875z M249.456,301.685
	c0.289-0.084,0.573-0.168,0.854-0.253c-0.165-0.085-0.334-0.175-0.512-0.277C249.799,301.155,249.677,301.365,249.456,301.685z
	 M182.57,248.408c1.597-1.717,7.511-6.744,22.031-6.975c-0.819-1.278-1.55-2.36-2.067-3.006c-0.486-0.608-1.373-1.276-2.541-1.939
	c-9.205-0.402-18.52,1.992-20.785,2.621C179.835,241.611,181.31,246.768,182.57,248.408z M211.962,251.181l0.211,0.363
	c0.012,0.021,1.115,1.924,1.844,3.277c1.492-0.027,5.885-0.195,7.447-0.256c-0.018-1.443-0.059-2.813-0.113-4.04
	c-1.867-0.233-8.785-2.213-11.779-3.146c1.021,1.73,1.857,3.179,2.236,3.836L211.962,251.181z M252.892,298.505v-5.961
	c-1.199-0.561-5.399-2.523-5.399-2.523l-3.124-1.361c-4.836-2.06-12.929-5.506-19.882-10.218
	c-7.498-5.079-14.403-15.553-16.497-18.901c-2.383,1.209-6.717,3.856-9.373,5.519c2.652,3.008,9.666,10.911,13.521,14.767
	c2.924,2.923,7.404,5.737,10.678,7.792c2.244,1.411,3.867,2.43,4.662,3.225c0,0.001,0.807,0.718,0.807,0.718
	c1.854,1.552,3.225,3.127,5.281,10.596c0.53,1.927,1.256,3.067,2.041,3.211c1.238,0.227,3.297-1.695,4.299-3.064l1.088-1.488
	l1.112,1.467c0.825,1.091,1.658,1.619,2.478,1.571c1.729-0.101,3.535-2.54,4.031-3.388l0.686-1.168l1.179,0.669
	c1.69,0.966,2.234,0.808,2.239,0.806c0.156-0.18,0.182-0.922,0.182-1.46c0-0.163-0.002-0.306-0.004-0.411L252.892,298.505z
	 M179.803,237.768c2.989-0.777,10.21-2.425,17.789-2.466c-3.948-1.704-9.454-3.1-14.331-2.945L179.803,237.768z M263.945,149.576
	c-1.035,1.035-2.291,2.241-3.682,3.546l6.051,9.512c4.995-2.539,9.495-4.737,12.756-6.411l-10.042-12.181
	C267.243,146.101,265.497,148.024,263.945,149.576z M296.241,148.612c-3.444-16.762-13.799-21.29-13.799-21.29
	s-5.654,7.532-11.506,14.482l10.244,13.36l-0.063,0.031C288.998,151.313,296.241,148.612,296.241,148.612z M264.878,163.474
	c0,0,1.158,7.841,1.158,15.503c0,7.663-1.961,14.968-4.188,19.156c-2.228,4.188-7.619,7.351-7.619,7.351
	c0-1.203-1.648-1.648-5.391-0.668c-0.593,0.155-1.232,0.276-1.891,0.371c0.323,1.199,3.716,14.227,0.246,19.651
	c4.081-0.816,6.367-1.578,6.367-1.578l0.98-1.514c0,0,7.841-2.584,13.632-9.178c5.792-6.593,9.979-24.057,9.979-35.284
	c0-11.226-0.98-20.048-0.98-20.048L264.878,163.474z M220.295,270.14c0.394-1.514,0.666-3.457,0.847-5.596
	c-3.346,0.881-6.08,1.367-6.962,1.514c1.05,1.376,2.208,2.813,3.444,4.219C218.324,270.265,219.267,270.213,220.295,270.14z
	 M220.074,238.307l0.499,0.046c0.063-0.625-0.048-0.371,0.198-0.83c0.729-1.359,2.92-9.393,3.799-12.673l-11.212,14.263
	C217.452,239.048,220.028,238.32,220.074,238.307z M225.924,276.984c0,0,1.751-14.008,2.752-20.262s1.077-12.584,0.457-19.469
	c-0.556-6.164-3.71-9.548-3.71-9.548s-2.25,8.755-2.25,15.759s-0.751,30.769-0.751,30.769L225.924,276.984z M72.152,264.077
	c0.526,0.528,1.23,1.827,1.722,3.409c0.492,1.582,1.026,3.415,3.62,5.36c2.594,1.945,3.81-1.054,5.675-0.081
	c1.864,0.973,4.62,0.811,7.457-0.973s2.594-5.351,2.027-5.918s-1.217-2.188-0.811-3.566c0.405-1.378,1.135-3.811,2.351-7.215
	c1.215-3.404,0.972-5.432,0.972-5.432c-0.008-0.923-2.803,2.924-4.385,4.785c-1.582,1.864-2.777,2.883-3.691,2.883
	s-2.319,1.09-5.166,2.67c-2.848,1.582-7.487,2.672-9.174,2.883S71.625,263.548,72.152,264.077z M74.139,263.957
	c0,0,3.553-0.916,6.419-2.14c2.866-1.224,4.719-2.503,5.196-2.979c0.478-0.479,1.146-0.307,2.254,0.802s3.897,5.387,3.897,7.909
	c0,2.521-3.476,5.234-5.31,5.234s-4.203-0.573-6.687-2.484C77.424,268.388,72.644,264.376,74.139,263.957z M227.771,206.376
	c1.357,0.553,3.594,0.05,4.75-0.654c1.156-0.703,1.42-1.822,1.156-2.086c-0.264-0.263-1.156-0.703-1.156,0.101
	c0,0.541-0.276,0.98-1.508,1.357s-2.449,0.465-2.739,0.176c-0.288-0.289,0.075-0.703,1.056-1.03c0.98-0.327,3.191-1.207,4.07-1.307
	c0.881-0.101,1.107-1.081-0.451-0.955c-1.559,0.125-4.424,1.483-5.807,1.759C225.761,204.013,226.413,205.823,227.771,206.376z
	 M191.474,206.719l-2.95-3.568v-0.38h5.472c-2.332-2.069-3.459-6.293-3.934-8.712c0,0-2.658,7.925-3.84,13.391l0.68,0.555
	L191.474,206.719z M135.224,281.207c-2.475-1.402-4.619-1.896-6.847-0.742c0,0-1.897,0.908-2.805,1.815
	c-0.907,0.907-0.577,3.712,0.331,7.013c0.906,3.299,3.711,4.866,6.847,4.866c3.134,0,6.846-0.742,8.496-4.124
	C142.896,286.652,137.699,282.609,135.224,281.207z M231.13,172.808c0.996-1.109,2.699-2.741,4.638-3.204
	c1.939-0.464,2.065-1.517,0.169-1.517c-1.897,0-4.258,0.674-5.102,2.149C229.992,171.712,229.699,174.402,231.13,172.808z
	 M232.69,193.128c1.518-0.928,3.793-4.385,3.983-5.755c0.19-1.371-1.243-1.244-1.413-0.569c-0.168,0.675-1.18,2.571-2.444,4.258
	c-1.265,1.686-1.849,0.59-2.53,0.59c-0.505,0-0.631,0.506-0.252,1.265C230.413,193.675,231.172,194.055,232.69,193.128z
	 M245.827,205.414l0.548-0.151c-0.823,0.099-1.659,0.161-2.452,0.196c0.332,1.43,3.18,14.376-1.057,20.136
	c1.273-0.193,2.446-0.396,3.512-0.598l-0.444-0.358C249.741,219.909,245.867,205.561,245.827,205.414z M133.657,275.845
	c1.237,1.236,4.125,0.494,6.682,0.494s2.722-1.402,2.722-7.178c0-5.773-2.31-7.589-5.444-10.723
	c-3.135-3.135-7.556-2.757-11.797-1.732c-1.653,0.398-2.145,2.145-2.145,4.619s0.99,6.434,3.052,9.239
	C128.79,273.37,132.42,274.607,133.657,275.845z M267.512,284.872c-0.003-0.013-0.005-0.019-0.005-0.019
	c-7.642-5.131-17.199-10.135-29.486-14.297c-0.025,0.482-0.063,0.957-0.105,1.414c10.572,3.622,19.981,8.174,28.282,13.674
	c-0.022,0.629-0.251,1.84-1.454,3.389c-1.464,1.887-4.441,4.342-10.482,6.725v2.748c0,0.447,0.029,1.043-0.02,1.623
	c3.041-1.107,5.527-2.273,7.557-3.459c-3.486,14.262-23.91,97.813-24.455,100.041c-18.006,9.289-36.851,15.115-56.045,17.274
	c-15.672,1.763-31.616,1.116-47.39-1.921c-23.669-4.561-39.913-13.226-43.618-15.33c-0.563-1.577-26.386-73.946-34.193-95.829
	c2.229,0.921,4.933,0.975,8.188-1.081c0.407-0.258,0.806-0.532,1.201-0.817c8.137,2.113,17.432,3.894,27.742,5.328
	c0.185,0.456,0.39,0.889,0.626,1.286c3.092,5.219,7.344,5.991,11.403,5.991c3.209,0,5.814-1.983,7.433-5.088
	c0,0.001,0,0.001,0,0.001c26.148,2.32,57.127,2.803,91.243,1.287c11.708-0.521,21.385-1.463,29.378-2.691
	c-0.398-0.638-0.761-1.487-1.066-2.602c-0.13-0.469-0.255-0.907-0.378-1.328c-7.578,1.123-16.824,2.012-28.117,2.514
	c-32.719,1.455-63.648,1.037-89.625-1.203c0.761-3.096,0.936-5.752,0.976-6.815c9.806,0.739,21.418,1.447,35.167,2.067
	c39.176,1.768,63.486,0.836,79.589-2.057c-0.041-0.082-0.081-0.162-0.122-0.24c-1.156-2.205-2.111-2.533-3.224-3.645
	c-1.763-1.762-9.973-5.894-14.915-10.604c-3.084,0.505-5.25,0.761-6.436,0.761c-5.35,0-17.229-1.841-29.558-4.581
	c-8.92-1.982-13.42-5.07-15.058-6.429c0.91-1.687,1.916-3.591,3.118-5.866c1.036-1.965,2.239-4.238,3.661-6.911
	c5.134,4.989,13.543,8.698,24.366,10.729c2.913,0.547,6.128,0.945,9.575,1.194c-2.688-3.006-4.739-5.351-4.739-5.351l0.364,0.44
	l-2.815,2.334l-0.432,0.358l-0.366-0.426c-0.059-0.068-0.746-0.871-1.543-1.877c-0.723-0.055-5.454-0.518-12.162-3.537
	c-5.729-2.578-9.184-5.938-10.42-7.284c1.554-2.898,3.338-6.205,5.416-10.015c0.964,1.407,4.301,5.814,8.574,6.26
	c-0.648-0.883-1.178-1.555-1.212-1.598c-1.865-1.947-3.753-9.686-3.963-10.568l-0.057-0.234l0.131-0.205l4.421-6.916l0.159-0.25
	l0.296-0.013c7.826-0.349,17.988,3.338,20.51,6.487c0.068,0.088,0.141,0.182,0.217,0.281c2.302,0.57,4.459,0.883,6.408,1.024
	c-0.17-1.229-0.673-3.579-0.939-4.771c-5.691-2.896-23.67-6.349-23.853-6.384l-1.102-0.21l0.817-0.767
	c0.07-0.065,6.924-6.494,7.975-7.546c1.252-1.252,6.995-1.705,14.245,1.582l-0.718-5.38l1.134-0.151l0.854,6.417l0.141,1.058
	l-0.958-0.47c-7.57-3.714-13.153-2.987-13.892-2.248c-0.855,0.855-5.32,5.056-7.187,6.808c4.12,0.819,18.454,3.789,23.312,6.404
	l0.229,0.123l0.057,0.252c0.097,0.428,0.853,3.775,1.042,5.348c0.236,0.01,0.47,0.019,0.699,0.023l12.584-16.007l0.348-0.443
	l0.447,0.343l10.354,7.914l-0.347,0.453l0.145,0.09l-0.135,0.021c-0.006-0.07-0.01-0.111-0.01-0.111l-0.098,0.129l-0.376,0.057
	c0.001,0.01,0.011,0.074,0.028,0.193l-8.527-6.518c1.227,1.785,2.826,4.612,3.414,7.548c0.193,0.974,0.363,2.304,0.5,3.851
	l4.764-3.715c0.196,1.619,0.523,4.694,0.82,9.245c-1.654,1.884-5.039,4.398-5.184,4.515v-0.082c0,1.937-0.045,3.82-0.143,5.498
	l0.002-0.037c1.705-0.989,4.594-5.166,5.514-6.701c0.186,3.459,0.342,7.574,0.424,12.355c-1.815,1.476-4.662,3.101-7.398,4.293
	l-1.559,7.459c1.08-0.103,2.021-0.174,2.676-0.174c1.695,0,4.943-2.341,6.341-3.47c-0.007,3.243-0.048,6.722-0.133,10.435
	c-1.405,0.311-5.114,1.126-9.587,2.057c2.823,1.8,5.77,3.395,8.573,4.778c0.478-1.878,0.88-3.76,1.175-5.478v0.002
	c11.805,3.521,18.936,6.554,18.936,6.554c-2.131,1.656-4.518,3.205-7.388,4.617c0,0,0,0.001,0.001,0.001
	c0.551,0.256,1.066,0.497,1.555,0.725c2.527-1.309,4.707-2.732,6.672-4.262l1.84-1.43l-2.145-0.912
	c-0.16-0.068-7.255-3.047-18.875-6.518c0.67-28.659-1.32-43.392-1.526-44.83l7.1,4.449h0.892l-6.326-9.711
	c1.713-0.165,3.309-0.362,4.784-0.573l-0.429-0.377c4.586-5.221,1.209-19.582,1.174-19.726l0.554-0.132
	c-1.362,0.042-2.544,0.014-3.228-0.012c6.273-11.872,7.673-18.936,5.354-26.92c-0.346-1.19-0.795-2.382-1.313-3.555
	c6.42-4.104,13.781-8.068,20.444-11.484c-1.499-3.056-4.413-7.052-5.861-8.965c-5.88,5.444-13.423,12.068-17.26,15.415
	c-3.066-4.953-6.659-8.754-7.661-9.155c-0.312-0.125-0.494-0.289-0.542-0.489c-0.055-0.226,0.06-0.479,0.113-0.541
	c0.164-0.189,0.198-0.475,0.065-0.688c-0.09-0.146-0.234-0.241-0.395-0.269c-0.043-1.028-0.62-3.325-2.484-5.948
	c-2.406-3.386-9.177-7.217-19.067-10.691c-9.89-3.475-23.433-0.535-30.561,1.425c-7.129,1.96-9.712,3.208-15.593,9.89
	c-5.882,6.683-9.891,13.098-10.782,24.057c-0.891,10.96,2.272,16.261,6.95,20.939c4.677,4.678,1.604,4.187-1.782,3.386
	c-3.386-0.802-7.841,1.96-11.227,4.455c-3.385,2.494-4.455,5.434-4.099,10.335c0.357,4.9-1.927,8.148-1.927,8.148l18.27-5.836
	c-3.369,3.925-5.115,11.726-0.722,20.258c3.234,6.281,9.542,9.489,9.542,9.489c-4.059-9.896,7.921-25.941,7.921-25.941l-0.308-0.225
	c0.035-0.048,3.503-4.805,4.262-6.666c0.736-1.812,1.264-4.324-0.417-6.005l-0.437-0.435l0.586-0.195
	c0.043-0.015,1.061-0.343,3.231-0.373c0.354-1.701,2.176-10.207,4.095-14.814c2.347-5.63,7.416-12.66,13.562-18.804
	c7.089-7.091,18.32-13.018,30.813-16.261l0.19,0.737c-12.364,3.21-23.47,9.064-30.468,16.063
	c-6.078,6.077-11.084,13.015-13.395,18.559c-2.1,5.04-4.094,14.875-4.113,14.974l-0.063,0.305h-0.312
	c-1.302,0-2.198,0.112-2.726,0.207c1.449,1.933,0.912,4.47,0.155,6.33c-0.792,1.947-4.206,6.63-4.351,6.828l-0.308-0.224v15.055
	c0,0-1.376,2.414-3.448,6.307l-0.014-0.008c-5.184,9.498-8.571,15.914-11.045,20.599c-1.164,2.205-2.143,4.06-3.03,5.704
	c-0.01-0.01-0.021-0.021-0.03-0.029c-0.847,1.517-1.629,2.94-2.312,4.246c-0.005,0.008-0.008,0.017-0.013,0.025
	c-0.16,0.276-0.32,0.551-0.479,0.822c-2.213,3.748-2.967,8.427-3.198,10.377c-0.026-0.016-0.057-0.033-0.081-0.047
	c-0.094,0.662-0.134,1.178-0.134,1.514c0,0.793-0.784,3.19-1.54,5.322c0.058-4.979-0.21-13.968-2.465-21.451
	c-0.406-1.344-0.847-2.686-1.322-4.014c1.509-0.076,3.033-0.137,4.563-0.188v16.246c0.569-2.464,1.617-5.733,3.455-9.242
	c1.11-2.119,2.485-4.566,3.953-7.163l0.353-0.004c0.211-0.456,0.44-0.918,0.683-1.379c-0.086,0.001-0.171,0.002-0.256,0.002
	c0.755-1.334,1.535-2.719,2.328-4.139c0.134,0,0.269,0.002,0.403,0.002c0.328-0.494,0.64-0.955,0.925-1.364
	c-0.189-0.001-0.379-0.003-0.57-0.005c1.506-2.721,3.025-5.549,4.442-8.381c0.241-0.483,0.481-0.959,0.718-1.428
	c-0.096-0.049-0.427-0.217-0.427-0.217c-0.274-0.139-6.742-3.484-10.139-10.082c-1.955-3.797-2.767-7.501-2.767-10.843
	c0-2.856,0.594-5.446,1.575-7.605c-1.255,0.401-2.919,0.933-4.676,1.494v37.137c-2.371,0.047-4.781,0.115-7.238,0.207
	c-0.062,0.002-0.122,0.006-0.184,0.008c-3.138-6.647-7.066-12.221-11.281-14.746l-0.012-0.006c0.002-0.006,0.003-0.01,0.004-0.016
	l-0.185-0.043c1.709-7.479-4.342-17.736-4.441-17.902c4.017-0.562,7.533-2.906,7.533-2.906s-3.695-2.518-5.922-4.265
	s-3.886-3.756-5.066-6.507c-1.179-2.751-2.445-5.677-3.973-6.07c-1.529-0.393-1.66-1.354-1.66-1.354
	c3.319-2.925,3.887-8.21,3.887-12.227c0-4.017-1.092-9.476-1.965-10.699c-0.874-1.223-1.136-0.786-1.136,0.917
	s-3.668,5.415-6.157,7.511c-2.489,2.096-3.711,4.091-3.711,5.25v5.218c-6.571-6.571-15.075-8.89-23.385-7.924
	c-8.31,0.967-18.94,13.336-23.385,19.713c-1.748,2.508-1.434,4.15,0.85,5.148c-0.485,0.484-0.972,1.167-1.452,2.012
	c-0.44-0.013-4.603-0.074-10.994,2.117c-6.764,2.319-13.431,13.817-9.083,18.166c4.349,4.349,7.314,6.583,14.673,2.325
	c-0.089,8.375,3.267,15.229,6.779,18.74c3.962,3.963,3.286,10.63,3.286,10.63s-14.591,7.054-19.52,11.981
	c-4.928,4.929-2.029,7.828,0.58,10.438c0.681,0.681,1.497,1.6,2.457,2.502l35.798,100.33c0,0,26.007,16.018,64.903,18.713v30.957
	c0,2.102,1.704,3.806,3.807,3.806h16.936c2.102,0,3.806-1.704,3.806-3.806v-31.154c19.119-1.643,40.226-6.982,62.207-18.516
	l26.827-109.751c0-0.001,0-0.001,0.002-0.001C267.853,286.636,267.554,285.058,267.512,284.872L267.512,284.872z M175.885,151.026
	c2.583,0,4.677,2.094,4.677,4.677c0,2.584-2.094,4.678-4.677,4.678c-2.584,0-4.678-2.094-4.678-4.678
	C171.207,153.12,173.301,151.026,175.885,151.026z M173.212,173.693c2.582,0,4.678,2.094,4.678,4.678
	c0,2.583-2.096,4.677-4.678,4.677c-2.584,0-4.68-2.094-4.68-4.677C168.532,175.787,170.628,173.693,173.212,173.693z
	 M163.802,163.161c2.584,0,4.68,2.094,4.68,4.678c0,2.583-2.096,4.678-4.68,4.678c-2.583,0-4.677-2.095-4.677-4.678
	C159.125,165.255,161.219,163.161,163.802,163.161z M159.235,189.68c0-2.584,2.095-4.678,4.678-4.678
	c2.584,0,4.678,2.094,4.678,4.678c0,2.583-2.094,4.678-4.678,4.678C161.33,194.358,159.235,192.263,159.235,189.68z
	 M151.613,220.097c-2.583,0-4.678-2.094-4.678-4.677c0-2.584,2.095-4.678,4.678-4.678s4.679,2.094,4.679,4.678
	C156.292,218.003,154.196,220.097,151.613,220.097z M156.88,208.523c0-2.583,2.093-4.678,4.677-4.678s4.679,2.095,4.679,4.678
	c0,2.584-2.095,4.678-4.679,4.678S156.88,211.107,156.88,208.523z M163.99,234.077c-2.584,0-4.678-2.093-4.678-4.677
	s2.094-4.678,4.678-4.678c2.583,0,4.677,2.094,4.677,4.678S166.573,234.077,163.99,234.077z M172.172,221.109
	c-2.584,0-4.679-2.094-4.679-4.678c0-2.583,2.095-4.677,4.679-4.677c2.583,0,4.677,2.094,4.677,4.677
	C176.849,219.015,174.755,221.109,172.172,221.109z M179.038,199.461c-2.582,0-4.678-2.094-4.678-4.678
	c0-2.583,2.096-4.677,4.678-4.677c2.584,0,4.679,2.094,4.679,4.677C183.717,197.367,181.622,199.461,179.038,199.461z
	 M184.357,164.203c0-2.583,2.095-4.677,4.679-4.677c2.583,0,4.678,2.094,4.678,4.677c0,2.584-2.095,4.678-4.678,4.678
	C186.452,168.881,184.357,166.787,184.357,164.203z M189.735,183.13c-2.584,0-4.68-2.094-4.68-4.677c0-2.584,2.096-4.678,4.68-4.678
	c2.582,0,4.678,2.094,4.678,4.678C194.413,181.036,192.317,183.13,189.735,183.13z M195.505,154.607
	c-2.584,0-4.678-2.094-4.678-4.678c0-2.583,2.094-4.677,4.678-4.677s4.678,2.094,4.678,4.677
	C200.183,152.513,198.089,154.607,195.505,154.607z M204.753,167.865c-2.583,0-4.678-2.094-4.678-4.677
	c0-2.584,2.095-4.678,4.678-4.678c2.584,0,4.678,2.094,4.678,4.678C209.431,165.771,207.337,167.865,204.753,167.865z
	 M215.873,159.312c-2.584,0-4.678-2.095-4.678-4.678c0-2.584,2.094-4.678,4.678-4.678c2.583,0,4.678,2.094,4.678,4.678
	C220.551,157.217,218.456,159.312,215.873,159.312z M236.626,224.347l-0.207,1.053l-0.758-0.759
	c-2.809-2.807-6.708-10.024-6.873-10.329l1.006-0.542c0.035,0.067,3.297,6.102,5.911,9.221c0.421-2.524,1.329-8.795,1.002-14.192
	l1.14-0.069C238.274,215.78,236.642,224.262,236.626,224.347z M189.388,194.438c0.268-0.64,0.574-1.301,0.91-1.975
	c0.811,0.307,2.596,0.923,5.663,1.712c4.44,1.142,7.677,0.508,8.183,0.508c0.508,0,1.587,0.571,2.919,1.903
	c1.333,1.332,5.836,4.63,10.087,1.712c4.25-2.918,6.406-12.814,6.66-14.272c0.254-1.459,0.381-1.967,0.889-3.109
	c0.507-1.141,0.649-3.171,0.649-4.955c0-1.785-0.527-5.726-0.527-5.727c1.899,0.84,2.831,1.166,2.831,1.166l0.357-8.057l3.064,3.066
	c0,0,0.444-3.224,1.043-5.115c0,0-0.218-0.352-0.168-0.81c0,0-1.971,0.561-3.661,1.158c-1.69,0.597-6.269,2.339-9.624,3.89
	c-3.357,1.551-7.109,3.917-8.851,4.985c-1.741,1.067-4.638,3.822-5.274,4.345h15.982c0,0-2.353-2.107-2.353-3.889
	c0-1.783,2.211-2.781,5.134-1.427c0.998,2.14,0.499,10.553,0.499,10.553l-19.608,13.619c-4.834,0.605-11.394-1.707-13.285-2.427
	c2.639-4.87,6.878-10.396,11.834-15.351c6.785-6.786,17.45-12.492,29.379-15.745c0.002,0.111,0.008,0.222,0.031,0.333
	c0.086,0.418,0.37,0.989,1.238,1.337c0.723,0.289,4.222,4.018,7.204,8.864c-1.007,0.877-1.601,1.389-1.601,1.389l1.542,2.023
	l0.386,2.987c0.734-0.503,1.491-1.005,2.259-1.506c0.469,1.073,0.876,2.161,1.19,3.246c2.268,7.812,0.908,14.448-5.391,26.303
	c-6.576,11.206-23.561,11.482-31.621,10.061c-7.68-1.356-20.203-6.601-21.607-7.196c-0.048-0.046-0.101-0.084-0.159-0.111
	C186.205,205.108,187.767,198.329,189.388,194.438z M157.003,277.38c0.893,1.385,4.911,4.305,22.477,6.623
	c13.281,1.754,38.041,3.91,38.289,3.932l0.688,0.059l-0.188,0.666l-2.292,8.085l-0.109,0.386l-0.399,0.028
	c-0.158,0.011-15.98,1.073-34.901-2.683c-15.339-3.046-23.277-6.771-25.916-8.188C154.808,284.851,155.367,280.894,157.003,277.38z
	 M69.301,295.705c1.571-1.576,2.973-3.248,4.145-4.781c-0.001,0-0.001,0.001-0.001,0.002c4.209,0.775,10.179,1.688,18.524,2.631
	c-0.084,1.883-0.079,4.206,0.208,6.452C83.795,298.798,76.136,297.356,69.301,295.705z M92.049,292.177
	c-7.846-0.889-13.572-1.748-17.685-2.487c1.807-2.492,2.87-4.362,2.87-4.362s6.57,4.252,15.074,4.252
	C92.308,289.58,92.161,290.607,92.049,292.177z M146.144,261.612c2.298-0.083,4.559-0.142,6.804-0.188v4.211
	c-1.697,0.058-3.388,0.123-5.065,0.209c-0.544-1.444-1.127-2.863-1.746-4.244C146.14,261.604,146.142,261.608,146.144,261.612z
	 M51.585,295.652l-0.827-0.855c-1.403-1.404-2.854-2.855-2.854-4.457c0-1.173,0.766-2.533,2.275-4.042
	c4.708-4.708,19.004-11.647,19.147-11.718l0.735-0.273l0.083-2.101c0-2.513-0.485-7.212-3.731-10.458
	c-2.943-2.942-6.38-9.277-6.38-17.445l0.015-2.709c-0.016-0.137-1.565-12.461,4.805-18.831l0.407-0.718
	c0.428-0.754,0.842-1.332,1.23-1.721l0.092-0.092c4.041,1.376,11.958,1.266,23.25,0.632c4.214-0.236,7.75-0.617,10.721-1.076
	c-0.244,3.206-0.783,15.73,4.738,24.094c3.553,5.385,9.444,9.103,15.372,9.703c4.405,0.446,8.384-0.861,11.204-3.683
	c0.851-0.851,1.502-1.866,1.95-3.03c5.364,3.424,11.058,13.065,14.577,24.743c2.037,6.755,2.41,14.88,2.41,19.932
	c0,1.46-0.031,2.661-0.063,3.5c-20.656-0.671-35.427-1.226-35.577-1.231l-1.419-0.053l-0.002,1.42
	c-0.001,0.039-0.022,3.935-1.295,8.277c-1.245,4.246-3.933,6.781-7.191,6.781c-3.673,0-7.454-0.645-10.225-5.319
	c-2.808-4.739-1.382-15.046-1.368-15.149l0.222-1.563h-1.578c-7.971,0-14.269-3.993-14.332-4.033l-1.218-0.783l-0.715,1.257
	c-0.055,0.095-5.53,9.618-12.49,14.014C57.862,302.259,54.234,298.44,51.585,295.652z M114.848,275.185
	c2.888-0.578,7.095-2.805,5.363-8.497c-1.733-5.692-7.59-5.692-10.973-5.692c0,0-2.475,3.629-1.567,9.652
	C108.579,276.669,111.961,275.761,114.848,275.185z M176.126,227.347c-2.51,4.119-6.029,10.924-6.029,16.722
	c0,1.263,0.182,2.472,0.561,3.599c2.713-5.26,4.854-9.098,5.469-10.188V227.347z M73.777,234.748
	c2.796-0.852,3.081-5.027,2.107-8.674c-0.972-3.648-5.998-4.297-8.998-3.405c-2.998,0.892-3.809,5.188-2.999,9.322
	C64.698,236.126,69.729,235.98,73.777,234.748z M235.136,174.79c-0.697,0.695,0,1.686,0.674,3.035
	c0.674,1.349,2.445,1.602,3.119,0.927c0.676-0.674,0.949-2.909,0.949-4.11c0-1.201-2.256-2.256-2.256-2.256
	C236.695,172.724,235.831,174.094,235.136,174.79z M90.221,231.505c0-2.514-1.827-4.459-3.648-3.082
	c-0.823,0.623-1.783,2.756-0.324,4.216C87.708,234.099,90.221,234.018,90.221,231.505z"/>
</svg>
