<?xml version="1.0" standalone="no"?><!DOCTYPE svg PUBLIC "-//W3C//DTD SVG 1.1//EN" "http://www.w3.org/Graphics/SVG/1.1/DTD/svg11.dtd"><svg class="icon" height="512" viewBox="0 0 1024 1024" version="1.1" xmlns="http://www.w3.org/2000/svg"><path d="M538.841744 503.621362c-1.70583-0.200686-3.411661-0.401372-5.017148-0.602058v-0.200686c1.605488 0.200686 3.411661 0.301029 5.318177 0.501715-0.100343 0.200686-0.200686 0.301029-0.301029 0.301029zM425.654875 789.398138l-74.855855-10.13464c14.850759-6.221264 31.909064-14.549731 50.6732-24.68437 44.150906 15.252131 61.209211 28.196374 24.182655 34.81901z m460.9756-115.193728l-286.378834-39.635473c43.24782-29.300147 80.675747-55.690348 123.321509-86.094268 13.445958 7.42538 27.493974 15.55316 41.54199 23.98197 19.767565-10.435669 39.334444-20.871338 48.164625-25.587457 5.41852-2.809603 10.13464-4.816463 16.054875-4.816463 16.456247 0 29.801862 13.646644 29.801862 30.504263 0 9.632925-4.314748 18.162077-11.13807 23.781284l-18.362763 15.653503c11.539441 7.124351 21.774424 13.345615 29.500833 17.861048 38.230671 22.175796 39.735816 31.307006 27.493973 44.351593z m68.233219-327.619795C929.476923 368.760412 815.989025 449.636845 690.359628 539.142773c-42.645762 30.40392-86.897011 61.409897-130.144831 90.710044-69.738364 47.261538-136.968153 90.208329-190.25027 119.006762-18.764135 10.13464-35.82244 18.463106-50.673199 24.68437-9.733268 4.013719-18.463106 7.224694-26.189515 9.331896-26.791573 7.325037-72.347281 11.439098-53.583146-22.777854L86.495639 734.209505c40.839588-39.133758 94.322391-19.566879 169.579618-11.740127 4.314748 0.401372 40.739245 5.619206 45.355022 6.321607 1.103773-1.00343 5.117491-16.857619-3.010289-19.466536-7.42538-2.307888-27.895345-2.909946-26.891916-3.913376-13.84733-37.728956-39.033415-106.965605-36.52484-110.979324 23.379912-36.524841 83.284664 23.680941 115.294071 60.607153 19.466536-15.954532 41.541989-33.915924 65.423616-53.181773L21.473395 481.044194c16.155218-16.054875 24.68437-23.379912 86.696326-18.162077 36.424498 3.010289 204.097599 17.660363 343.574326 31.608035 15.352474-11.639784 22.777854-19.26585 28.196374-22.577168 5.318177-3.311318 14.349045-10.736698 24.182656-10.736698 13.345615 0 24.584027 8.529152 29.099461 20.570309 1.304459 3.612347 2.107202 7.42538 2.107202 11.439098 0 3.411661-0.501715 6.622636-1.505144 9.733268v0.200686c1.70583 0.200686 42.24439 3.411661 45.355022 3.813033 1.00343-1.103773 8.830181-17.56002 0.602058-19.767565-2.809603-0.802744-14.951102-1.404802-16.55659-1.505144-1.605488-0.100343-0.501715-0.903087 0.100343-1.304459 143.590789-112.88584 275.541793-207.709946 317.585497-233.096717 43.849878-26.390201 104.858403-11.037727 113.989613 4.916805 12.542871 22.075453 3.612347 52.278687-40.036845 90.409015z" fill="#EEEEEE" /></svg>